<svg width="113" height="50" viewBox="0 0 113 50" fill="none" xmlns="http://www.w3.org/2000/svg">
<g id="Group">
<g id="Group_2">
<path id="Vector" d="M57.9122 29.6816H54.8671L53.6836 26.5142H48.1546L47.0079 29.6816H44.0491L49.4261 15.716H52.3849L57.9138 29.6816H57.9122ZM52.7656 24.1475L50.8751 18.9789L48.9847 24.1475H52.7672H52.7656Z" fill="white" style="fill:white;fill-opacity:1;"/>
<path id="Vector_2" d="M59.3917 15.716H64.8838C67.1117 15.716 68.5703 16.0606 69.2612 16.7481C69.9521 17.4373 70.2976 18.2591 70.2976 19.2119C70.2976 20.6484 69.6482 21.6562 68.348 22.2337C70.0801 22.7546 70.9469 23.8919 70.9469 25.6438C70.9469 26.642 70.6766 27.4735 70.1344 28.1399C69.5939 28.8064 68.9717 29.2303 68.2728 29.4098C67.5723 29.5894 66.1777 29.68 64.0905 29.68H59.3917V15.7144V15.716ZM62.1697 18.0229V21.2793H64.0026C65.4404 21.2793 66.3968 21.179 66.8686 20.98C67.3404 20.7811 67.5755 20.3329 67.5755 19.6357C67.5755 18.9789 67.3692 18.5454 66.955 18.3367C66.5407 18.128 65.4772 18.0229 63.7643 18.0229H62.1697ZM62.1697 23.578V27.3165H64.7399C66.0385 27.3165 66.9214 27.2017 67.3852 26.9736C67.849 26.7455 68.0825 26.2537 68.0825 25.4983C68.0825 24.7428 67.8362 24.2542 67.342 23.9841C66.8494 23.7139 65.8738 23.5797 64.4152 23.5797H62.1697V23.578Z" fill="white" style="fill:white;fill-opacity:1;"/>
<path id="Vector_3" d="M72.7222 22.7757C72.7222 20.5222 73.3123 18.7428 74.4943 17.4357C75.6762 16.1286 77.3107 15.475 79.3978 15.475C81.7841 15.475 83.5002 16.1884 84.5445 17.6152C85.5889 19.0404 86.1103 20.7422 86.1103 22.7191C86.1103 24.9288 85.5201 26.6824 84.3382 27.9782C83.1563 29.2756 81.5314 29.9243 79.4618 29.9243C77.3923 29.9243 75.6986 29.2853 74.507 28.0073C73.3155 26.7293 72.7206 24.9854 72.7206 22.7773L72.7222 22.7757ZM75.5882 22.6883C75.5882 24.1426 75.9241 25.309 76.5958 26.1858C77.2675 27.0626 78.2111 27.4993 79.4282 27.4993C80.7125 27.4993 81.6705 27.0351 82.3006 26.1081C82.9308 25.1812 83.2459 24.0294 83.2459 22.6511C83.2459 19.4626 81.9728 17.8692 79.4282 17.8692C76.8837 17.8692 75.5882 19.4756 75.5882 22.6883Z" fill="white" style="fill:white;fill-opacity:1;"/>
<path id="Vector_4" d="M88.3062 15.716H91.0842V23.2788C91.0842 24.3982 91.1226 25.2119 91.1994 25.7199C91.2761 26.2278 91.5432 26.6517 91.9974 26.9898C92.4516 27.3279 93.0834 27.4977 93.8927 27.4977C94.9178 27.4977 95.612 27.2535 95.975 26.7649C96.3381 26.2764 96.5204 25.165 96.5204 23.4325V15.716H99.2984V23.0458C99.2984 24.759 99.1945 26.0434 98.9882 26.9008C98.7818 27.7582 98.2733 28.4748 97.4656 29.0539C96.6579 29.6331 95.4952 29.9227 93.979 29.9227C92.4628 29.9227 91.3097 29.6735 90.4605 29.1753C89.6112 28.677 89.0387 28.0332 88.746 27.2437C88.4517 26.4559 88.3062 25.0954 88.3062 23.1623V15.716Z" fill="white" style="fill:white;fill-opacity:1;"/>
<path id="Vector_5" d="M105.362 29.6816V18.0811H101.246V15.716H112.218V18.0811H108.14V29.6816H105.362Z" fill="white" style="fill:white;fill-opacity:1;"/>
</g>
<path id="Vector_6" d="M23.755 48.5941H24.0749V14.1113C24.0749 10.2499 22.6323 6.53239 20.0366 3.70142L17.129 0.5275V40.7741C18.5172 46.0155 22.4884 48.0635 23.755 48.5941Z" fill="white" style="fill:white;fill-opacity:1;"/>
<path id="Vector_7" d="M6.62608 48.5941H6.94595V14.1113C6.94595 10.2499 5.50334 6.53239 2.90761 3.70142L0 0.5275V40.7741C1.38823 46.0155 5.3594 48.0635 6.62608 48.5941Z" fill="white" style="fill:white;fill-opacity:1;"/>
<path id="Vector_8" d="M32.3195 49.5H32.6394V15.0172C32.6394 11.1558 31.1968 7.4383 28.601 4.60733L25.6918 1.43503V41.6817C27.0801 46.923 31.0512 48.971 32.3179 49.5016L32.3195 49.5Z" fill="white" style="fill:white;fill-opacity:1;"/>
<path id="Vector_9" d="M12.6524 3.65774C9.93355 6.51136 8.41577 10.3194 8.41577 14.2811V39.2018C8.41577 43.6795 11.5153 47.418 15.6608 48.3595V0.5L12.6524 3.65774Z" fill="white" style="fill:white;fill-opacity:1;"/>
<g id="Group_3">
<path id="Vector_10" d="M50.7887 43.3204V40.8987H57.031V46.682C55.43 48.1751 53.3925 48.9209 50.9151 48.9209C48.4377 48.9209 46.7008 48.2156 45.4597 46.8065C44.2186 45.3975 43.5981 43.5825 43.5981 41.3614C43.5981 38.8766 44.289 37.013 45.6724 35.7674C47.0559 34.5234 48.74 33.9006 50.7264 33.9006C54.1889 33.9006 56.2265 35.3225 56.8422 38.1664L53.9826 38.7197C53.5332 37.1667 52.4473 36.3902 50.7264 36.3902C47.9611 36.3902 46.5777 38.0063 46.5777 41.24C46.5777 42.8335 46.9311 44.092 47.6396 45.0157C48.3481 45.9395 49.3669 46.4005 50.6976 46.4005C51.9275 46.4005 53.0662 45.9961 54.1122 45.1856V43.3188H50.7887V43.3204Z" fill="white" style="fill:white;fill-opacity:1;"/>
<path id="Vector_11" d="M59.7402 48.6717V34.1529H65.8561C67.7417 34.1529 69.1508 34.4376 70.08 35.0071C71.0108 35.5765 71.4762 36.6506 71.4762 38.2295C71.4762 40.5477 70.2159 41.892 67.6938 42.2673C68.6582 42.7882 69.7249 43.9804 70.8893 45.8424L72.6453 48.6734H69.1716L66.0353 43.982C65.7298 43.5016 65.3875 43.1522 65.0069 42.9354C64.6262 42.7186 64.0265 42.6086 63.206 42.6086H62.6286V48.6734H59.7402V48.6717ZM62.6302 40.2775H64.7766C66.232 40.2775 67.2172 40.1594 67.729 39.92C68.2407 39.6822 68.4982 39.1791 68.4982 38.4091C68.4982 37.686 68.2887 37.2055 67.8681 36.9677C67.4475 36.7299 66.4591 36.6102 64.9045 36.6102H62.6302V40.2759V40.2775Z" fill="white" style="fill:white;fill-opacity:1;"/>
<path id="Vector_12" d="M87.1514 48.6717H83.9847L82.7548 45.3781H77.0068L75.8136 48.6717H72.7365L78.3262 34.1529H81.4034L87.1514 48.6717ZM81.8 42.9176L79.8344 37.5436L77.8688 42.9176H81.8Z" fill="white" style="fill:white;fill-opacity:1;"/>
<path id="Vector_13" d="M87.9159 43.9432L90.7451 43.6698C91.0762 45.5318 92.1206 46.462 93.8814 46.462C95.7671 46.462 96.7107 45.789 96.7107 44.4431C96.7107 43.9481 96.506 43.5695 96.0949 43.3091C95.6839 43.0486 94.6683 42.7105 93.0482 42.2964C89.9966 41.5328 88.4709 40.0834 88.4709 37.948C88.4709 36.662 88.9475 35.6671 89.9007 34.9618C90.8539 34.2565 92.1174 33.9022 93.6927 33.9022C97.2593 33.9022 99.0921 35.3743 99.1929 38.3201L96.3045 38.4107C96.0789 37.0243 95.1993 36.332 93.6639 36.332C92.0486 36.332 91.2409 36.8076 91.2409 37.7588C91.2409 38.0726 91.3833 38.3686 91.6679 38.6469C91.9526 38.9251 92.8435 39.2616 94.3389 39.6563C96.7603 40.2791 98.2413 40.9731 98.785 41.7399C99.3272 42.5067 99.5991 43.4078 99.5991 44.4463C99.5991 47.431 97.6831 48.9241 93.8511 48.9241C90.2845 48.9241 88.3061 47.2643 87.9159 43.9448V43.9432Z" fill="white" style="fill:white;fill-opacity:1;"/>
<path id="Vector_14" d="M101.318 43.9432L104.148 43.6698C104.479 45.5318 105.523 46.462 107.284 46.462C109.17 46.462 110.113 45.789 110.113 44.4431C110.113 43.9481 109.908 43.5695 109.497 43.3091C109.086 43.0486 108.071 42.7105 106.451 42.2964C103.399 41.5328 101.873 40.0834 101.873 37.948C101.873 36.662 102.35 35.6671 103.303 34.9618C104.256 34.2565 105.52 33.9022 107.095 33.9022C110.662 33.9022 112.495 35.3743 112.595 38.3201L109.707 38.4107C109.481 37.0243 108.602 36.332 107.066 36.332C105.451 36.332 104.643 36.8076 104.643 37.7588C104.643 38.0726 104.786 38.3686 105.07 38.6469C105.355 38.9251 106.246 39.2616 107.741 39.6563C110.163 40.2791 111.644 40.9731 112.188 41.7399C112.73 42.5067 113.002 43.4078 113.002 44.4463C113.002 47.431 111.086 48.9241 107.254 48.9241C103.687 48.9241 101.709 47.2643 101.318 43.9448V43.9432Z" fill="white" style="fill:white;fill-opacity:1;"/>
</g>
</g>
</svg>
