<svg width="54" height="54" viewBox="0 0 54 54" fill="none" xmlns="http://www.w3.org/2000/svg">
<g id="experiment">
<mask id="mask0_127_2164" style="mask-type:alpha" maskUnits="userSpaceOnUse" x="0" y="0" width="54" height="54">
<rect id="Bounding box" width="54" height="54" fill="#D9D9D9" style="fill:#D9D9D9;fill:color(display-p3 0.8510 0.8510 0.8510);fill-opacity:1;"/>
</mask>
<g mask="url(#mask0_127_2164)">
<path id="experiment_2" d="M12.15 44.7746C10.9398 44.7746 10.0605 44.228 9.51183 43.1349C8.96283 42.0414 9.06202 41.0188 9.80939 40.067L21.375 26.0389V12.1496H18.9292C18.5182 12.1496 18.1696 12.0105 17.8835 11.7322C17.5978 11.454 17.4549 11.1094 17.4549 10.6984C17.4549 10.287 17.595 9.93861 17.8751 9.65323C18.1556 9.36748 18.503 9.22461 18.9174 9.22461H35.0825C35.4969 9.22461 35.8443 9.36373 36.1248 9.64198C36.405 9.92023 36.545 10.2649 36.545 10.6759C36.545 11.0872 36.405 11.4356 36.1248 11.721C35.8443 12.0067 35.4969 12.1496 35.0825 12.1496H32.625V26.0389L44.1922 40.0552C44.976 41.0149 45.0933 42.0414 44.5443 43.1349C43.9957 44.228 43.0976 44.7746 41.85 44.7746H12.15ZM17.8875 39.1496H36.1125L29.1375 30.5996H24.8625L17.8875 39.1496ZM12.15 41.8496H41.85L29.7 26.9996V12.1496H24.3V26.9996L12.15 41.8496Z" fill="#203568" style="fill:#203568;fill:color(display-p3 0.1255 0.2078 0.4078);fill-opacity:1;"/>
</g>
</g>
</svg>
