<svg width="54" height="54" viewBox="0 0 54 54" fill="none" xmlns="http://www.w3.org/2000/svg">
<g id="local_fire_department">
<mask id="mask0_127_2152" style="mask-type:alpha" maskUnits="userSpaceOnUse" x="0" y="0" width="54" height="54">
<rect id="Bounding box" width="54" height="54" fill="#D9D9D9" style="fill:#D9D9D9;fill:color(display-p3 0.8510 0.8510 0.8510);fill-opacity:1;"/>
</mask>
<g mask="url(#mask0_127_2152)">
<path id="local_fire_department_2" d="M14.85 32.4002C14.85 34.4425 15.3636 36.3464 16.3907 38.1119C17.4175 39.8774 18.8035 41.3024 20.5487 42.3869C20.3815 42.0696 20.2523 41.7342 20.1612 41.3806C20.0704 41.0273 20.025 40.6776 20.025 40.3315C20.025 39.4776 20.1874 38.6749 20.5122 37.9234C20.8365 37.1719 21.2597 36.4977 21.7817 35.9007L27 29.9297L32.2397 35.9007C32.7621 36.5352 33.1819 37.2282 33.4992 37.9797C33.8164 38.7312 33.975 39.5151 33.975 40.3315C33.975 40.6776 33.9297 41.0367 33.8389 41.4087C33.7478 41.7811 33.6186 42.1259 33.4514 42.4431C35.1966 41.4711 36.5826 40.0836 37.6094 38.2806C38.6365 36.4776 39.1501 34.5175 39.1501 32.4002C39.1501 30.4877 38.8219 28.6034 38.1657 26.7471C37.5094 24.8909 36.5625 23.1752 35.3251 21.6002C34.6875 22.0127 34.0219 22.3315 33.3282 22.5565C32.6344 22.7815 31.875 22.894 31.05 22.894C29.0858 22.894 27.363 22.294 25.8818 21.094C24.4005 19.894 23.4795 18.3233 23.1188 16.3819C21.7688 17.6052 20.5875 18.8637 19.575 20.1574C18.5625 21.4512 17.7 22.7802 16.9875 24.1444C16.275 25.5091 15.7407 26.8851 15.3844 28.2726C15.0282 29.6601 14.85 31.036 14.85 32.4002ZM27 34.4252L24.0188 37.8002C23.6813 38.2127 23.4188 38.6346 23.2313 39.0659C23.0438 39.4971 22.95 39.9752 22.95 40.5002C22.95 41.6252 23.3438 42.5815 24.1313 43.369C24.9188 44.1565 25.875 44.5502 27 44.5502C28.125 44.5502 29.0813 44.1565 29.8688 43.369C30.6563 42.5815 31.05 41.6252 31.05 40.5002C31.05 39.9752 30.9563 39.4877 30.7688 39.0377C30.5813 38.5877 30.3188 38.1752 29.9813 37.8002L27 34.4252ZM25.875 10.1123V14.794C25.875 16.2362 26.377 17.4593 27.3809 18.4632C28.3847 19.4671 29.6078 19.969 31.05 19.969C31.7018 19.969 32.3213 19.8486 32.9085 19.6079C33.4954 19.3671 34.0126 19.0317 34.4599 18.6016L35.338 17.7151C37.3341 19.0823 38.956 21.1347 40.2036 23.8722C41.4512 26.6097 42.0751 29.4524 42.0751 32.4002C42.0751 36.583 40.6082 40.1412 37.6746 43.0748C34.741 46.0084 31.1828 47.4752 27 47.4752C22.8173 47.4752 19.2591 46.0084 16.3255 43.0748C13.3919 40.1412 11.925 36.583 11.925 32.4002C11.925 28.6907 13.1445 24.8549 15.5835 20.8926C18.0225 16.9307 21.453 13.3373 25.875 10.1123Z" fill="#203568" style="fill:#203568;fill:color(display-p3 0.1255 0.2078 0.4078);fill-opacity:1;"/>
</g>
</g>
</svg>
