<svg width="54" height="55" viewBox="0 0 54 55" fill="none" xmlns="http://www.w3.org/2000/svg">
<g id="microbiology">
<mask id="mask0_127_2156" style="mask-type:alpha" maskUnits="userSpaceOnUse" x="0" y="0" width="54" height="55">
<rect id="Bounding box" y="0.5" width="54" height="54" fill="#D9D9D9" style="fill:#D9D9D9;fill:color(display-p3 0.8510 0.8510 0.8510);fill-opacity:1;"/>
</mask>
<g mask="url(#mask0_127_2156)">
<path id="microbiology_2" d="M33.7055 48.1054C33.2938 48.1054 32.9452 47.9653 32.6598 47.6852C32.3741 47.4054 32.2312 47.058 32.2312 46.6429L32.2875 43.8776C31.3068 43.7565 30.3729 43.5163 29.4856 43.1571C28.5988 42.7982 27.773 42.3274 27.0084 41.7446L24.5857 44.2748C24.2625 44.5785 23.912 44.7304 23.5344 44.7304C23.1564 44.7304 22.8116 44.5746 22.5 44.2629C22.203 43.9659 22.0545 43.6217 22.0545 43.2302C22.0545 42.8387 22.203 42.5008 22.5 42.2166L24.9969 39.6983C24.818 39.4819 24.6676 39.2569 24.5458 39.0233C24.4243 38.7896 24.3063 38.5515 24.192 38.3089L22.4656 34.9125C22.4221 34.8116 22.3753 34.7214 22.325 34.6419C22.2744 34.5624 22.2131 34.4796 22.1411 34.3933L18.9646 37.5692C18.6534 37.8808 18.3016 38.0402 17.9094 38.0473C17.5168 38.0544 17.1648 37.9035 16.8536 37.5945C16.5562 37.3001 16.4075 36.9519 16.4075 36.5499C16.4075 36.1476 16.5562 35.7979 16.8536 35.5009L20.0508 32.325C19.9788 32.253 19.8995 32.1917 19.8129 32.1411C19.7263 32.0904 19.6325 32.0436 19.5316 32.0004L16.1915 30.3647C16.0183 30.2717 15.8596 30.1813 15.7156 30.0936C15.5713 30.0062 15.4355 29.9106 15.3084 29.8067L12.7558 32.3593C12.4441 32.6709 12.0995 32.8268 11.7219 32.8268C11.3439 32.8268 10.9991 32.6723 10.6875 32.3633C10.3905 32.0689 10.242 31.7207 10.242 31.3187C10.242 30.9163 10.3905 30.5666 10.6875 30.2696L13.0719 27.8858C12.3849 27.0668 11.8351 26.184 11.4226 25.2375C11.0105 24.2914 10.7521 23.2832 10.6475 22.2129H7.86539C7.45627 22.2129 7.10902 22.074 6.82364 21.7961C6.53789 21.5186 6.39502 21.174 6.39502 20.7623C6.39502 20.3505 6.53639 20.0019 6.81914 19.7166C7.10152 19.4308 7.45214 19.2879 7.87102 19.2879H10.7696C10.9346 18.5076 11.1671 17.7795 11.4671 17.1038C11.7675 16.4284 12.1524 15.7791 12.6219 15.1558L10.2161 12.75C9.91871 12.4665 9.77002 12.1309 9.77002 11.7431C9.77002 11.3558 9.91871 11.0136 10.2161 10.7166C10.5131 10.4192 10.8553 10.2705 11.2426 10.2705C11.6304 10.2705 11.966 10.4192 12.2495 10.7166L14.6896 13.0661C15.3043 12.6101 15.9483 12.2364 16.6218 11.9451C17.2953 11.6537 18.0172 11.4287 18.7875 11.2701V8.37151C18.7875 7.95263 18.9264 7.60201 19.2043 7.31963C19.4818 7.03688 19.8264 6.89551 20.2381 6.89551C20.6499 6.89551 20.9985 7.0337 21.2838 7.31007C21.5696 7.58645 21.7125 7.92957 21.7125 8.33944V11.1233C22.7362 11.2511 23.709 11.4986 24.6307 11.8658C25.5525 12.2333 26.3956 12.7271 27.1603 13.3474L29.3276 11.1795C29.6336 10.8735 29.9821 10.7205 30.3733 10.7205C30.7648 10.7205 31.1028 10.8692 31.3875 11.1666C31.6845 11.4602 31.833 11.8076 31.833 12.2089C31.833 12.6101 31.6794 12.9641 31.3723 13.2709L29.1155 15.5276C29.2715 15.744 29.405 15.9405 29.516 16.1171C29.627 16.2934 29.7285 16.4927 29.8203 16.7151L31.4651 19.9629C31.5086 20.0496 31.5555 20.1362 31.6057 20.2228C31.6563 20.3091 31.7105 20.3884 31.7683 20.4608L34.7973 17.4317C35.0816 17.1347 35.4195 16.9862 35.811 16.9862C36.2025 16.9862 36.5467 17.1347 36.8437 17.4317C37.1407 17.7287 37.2892 18.0729 37.2892 18.4644C37.2892 18.8559 37.1407 19.1938 36.8437 19.4781L33.8017 22.5634C33.8883 22.6354 33.9785 22.7003 34.0723 22.758C34.166 22.8158 34.2706 22.8735 34.3861 22.9313L37.8084 24.6362C38.0998 24.7776 38.3653 24.921 38.6049 25.0665C38.8441 25.2124 39.0907 25.3935 39.3446 25.6099L41.7459 23.2299C42.0459 22.9299 42.3898 22.7799 42.7775 22.7799C43.1649 22.7799 43.5003 22.9284 43.7838 23.2254C44.0812 23.5101 44.2299 23.8481 44.2299 24.2396C44.2299 24.6308 44.0842 24.9804 43.7928 25.2887L41.4343 27.6996C42.017 28.4638 42.4657 29.2766 42.7803 30.138C43.0946 30.999 43.3029 31.8823 43.4053 32.7879H46.1491C46.5485 32.7879 46.8815 32.9269 47.1481 33.2048C47.4151 33.4823 47.5486 33.8269 47.5486 34.2386C47.5486 34.6504 47.4099 34.9989 47.1324 35.2843C46.8549 35.5701 46.5105 35.7129 46.0991 35.7129H43.2303C43.0717 36.4832 42.8409 37.2144 42.5379 37.9067C42.2349 38.5989 41.8556 39.2524 41.4 39.867L43.7838 42.2728C44.0812 42.5571 44.2299 42.8949 44.2299 43.2864C44.2299 43.6779 44.0812 44.0312 43.7838 44.3462C43.4726 44.6398 43.128 44.7866 42.75 44.7866C42.372 44.7866 42.0273 44.6308 41.7161 44.3192L39.3103 41.9348C38.6956 42.3908 38.0516 42.7644 37.3781 43.0558C36.7046 43.3472 35.9827 43.5722 35.2125 43.7308L35.1562 46.6429C35.1562 47.058 35.0173 47.4054 34.7394 47.6852C34.4619 47.9653 34.1173 48.1054 33.7055 48.1054ZM33.3067 41.0004C35.5522 41.0004 37.3875 40.1473 38.8125 38.4411C40.2375 36.7348 40.7692 34.7694 40.4077 32.5449C40.2067 31.3944 39.7728 30.3619 39.1061 29.4473C38.4393 28.533 37.5727 27.8091 36.5062 27.2754L32.85 25.4192C32.0306 25.0059 31.2915 24.4808 30.6326 23.8436C29.9733 23.2065 29.4375 22.4754 29.025 21.6504L27.225 17.9942C26.5875 16.7567 25.688 15.7817 24.5266 15.0692C23.3649 14.3567 22.0871 14.0004 20.6932 14.0004C18.4477 14.0004 16.6125 14.8442 15.1875 16.5317C13.7625 18.2192 13.2307 20.1752 13.5922 22.3997C13.7932 23.5502 14.2323 24.5899 14.9096 25.5188C15.5865 26.448 16.4666 27.1836 17.55 27.7254L21.1376 29.5131C21.9708 29.9338 22.7131 30.4738 23.3645 31.1331C24.0155 31.7919 24.5523 32.5311 24.975 33.3504L26.775 37.0067C27.4125 38.2442 28.3119 39.2192 29.4733 39.9317C30.635 40.6442 31.9128 41.0004 33.3067 41.0004ZM20.925 24.4545C21.7616 24.4545 22.4718 24.1624 23.0557 23.5781C23.64 22.9939 23.9394 22.2834 23.954 21.4468C23.954 20.6106 23.6583 19.8968 23.067 19.3054C22.4756 18.714 21.7616 18.411 20.925 18.3964C20.0883 18.3964 19.3781 18.6921 18.7942 19.2834C18.21 19.8748 17.9105 20.5888 17.8959 21.4254C17.9105 22.2621 18.21 22.9723 18.7942 23.5562C19.3781 24.1404 20.0883 24.4399 20.925 24.4545ZM32.3938 36.4313C33.0035 36.4313 33.5205 36.2213 33.9446 35.8013C34.3687 35.3816 34.5808 34.8668 34.5808 34.2566C34.5808 33.6469 34.3708 33.1299 33.9508 32.7058C33.5311 32.2817 33.0163 32.0696 32.4061 32.0696C31.7964 32.0696 31.2795 32.2796 30.8553 32.6996C30.4312 33.1193 30.2191 33.6341 30.2191 34.2443C30.2191 34.854 30.4291 35.3709 30.8491 35.7951C31.2688 36.2192 31.7836 36.4313 32.3938 36.4313Z" fill="#203568" style="fill:#203568;fill:color(display-p3 0.1255 0.2078 0.4078);fill-opacity:1;"/>
</g>
</g>
</svg>
