<svg width="54" height="55" viewBox="0 0 54 55" fill="none" xmlns="http://www.w3.org/2000/svg">
<g id="potted_plant">
<mask id="mask0_127_2148" style="mask-type:alpha" maskUnits="userSpaceOnUse" x="0" y="0" width="54" height="55">
<rect id="Bounding box" y="0.5" width="54" height="54" fill="#D9D9D9" style="fill:#D9D9D9;fill:color(display-p3 0.8510 0.8510 0.8510);fill-opacity:1;"/>
</mask>
<g mask="url(#mask0_127_2148)">
<path id="potted_plant_2" d="M21.0635 45.0499H32.8934C33.0809 45.0499 33.2395 44.9959 33.3693 44.8879C33.499 44.7796 33.5928 44.6461 33.6505 44.4874L35.905 34.3669H18.1081L20.3063 44.4874C20.3641 44.6461 20.4578 44.7796 20.5876 44.8879C20.7173 44.9959 20.876 45.0499 21.0635 45.0499ZM21.0635 47.9749C20.1751 47.9749 19.3942 47.7038 18.7207 47.1616C18.0472 46.6193 17.6238 45.9226 17.4505 45.0713L15.0925 34.3669H38.8643L36.5063 45.0713C36.3331 45.9079 35.9041 46.6009 35.2193 47.1503C34.5346 47.7001 33.7405 47.9749 32.8372 47.9749H21.0635ZM12.9292 31.4419H41.071C41.302 31.4419 41.4895 31.3698 41.6335 31.2254C41.7779 31.081 41.8501 30.9006 41.8501 30.6842V25.6088H12.1501V30.6842C12.1501 30.9006 12.2258 31.081 12.3773 31.2254C12.5288 31.3698 12.7128 31.4419 12.9292 31.4419ZM26.9787 16.8299C26.9787 14.176 27.953 11.9181 29.9015 10.0563C31.85 8.194 34.1583 7.19088 36.8264 7.04688C36.6678 9.36025 35.8233 11.4263 34.2929 13.2451C32.7625 15.0638 30.8118 16.2053 28.4407 16.6696V22.6844H44.7751V30.6842C44.7751 31.6971 44.411 32.5641 43.6827 33.2852C42.9545 34.0064 42.0839 34.3669 41.071 34.3669H12.9292C11.9163 34.3669 11.0457 34.0064 10.3175 33.2852C9.58922 32.5641 9.2251 31.6971 9.2251 30.6842V22.6844H25.5162V16.6696C23.1451 16.2053 21.1943 15.0674 19.664 13.2558C18.1336 11.4441 17.2891 9.3745 17.1305 7.04688C19.7843 7.19088 22.0891 8.19756 24.0447 10.0669C26.0007 11.9359 26.9787 14.1902 26.9787 16.8299Z" fill="#203568" style="fill:#203568;fill:color(display-p3 0.1255 0.2078 0.4078);fill-opacity:1;"/>
</g>
</g>
</svg>
