<svg width="54" height="55" viewBox="0 0 54 55" fill="none" xmlns="http://www.w3.org/2000/svg">
<g id="wb_sunny">
<mask id="mask0_127_2160" style="mask-type:alpha" maskUnits="userSpaceOnUse" x="0" y="0" width="54" height="55">
<rect id="Bounding box" y="0.5" width="54" height="54" fill="#D9D9D9" style="fill:#D9D9D9;fill:color(display-p3 0.8510 0.8510 0.8510);fill-opacity:1;"/>
</mask>
<g mask="url(#mask0_127_2160)">
<path id="wb_sunny_2" d="M25.5374 9.82026V3.7627H28.4625V9.82026H25.5374ZM25.5374 51.2377V45.1801H28.4625V51.2377H25.5374ZM44.6799 28.9627V26.0377H50.7374V28.9627H44.6799ZM3.26245 28.9627V26.0377H9.32001V28.9627H3.26245ZM40.4049 16.1855L38.3146 14.0953L42.6937 9.59132L44.9088 11.8064L40.4049 16.1855ZM11.3625 45.3528L9.14733 43.1377L13.595 38.8149L15.6853 40.9051L11.3625 45.3528ZM42.6937 45.3528L38.3146 40.9051L40.4049 38.8149L44.9088 43.1377L42.6937 45.3528ZM13.595 16.1855L9.14733 11.8064L11.3625 9.59132L15.6853 14.0953L13.595 16.1855ZM27.005 39.8752C23.5689 39.8752 20.6465 38.6726 18.2379 36.2673C15.8293 33.8621 14.625 30.9414 14.625 27.5053C14.625 24.0691 15.8276 21.1468 18.2328 18.7381C20.6381 16.3295 23.5588 15.1252 26.9949 15.1252C30.431 15.1252 33.3534 16.3278 35.762 18.7331C38.1706 21.1383 39.375 24.059 39.375 27.4951C39.375 30.9313 38.1723 33.8536 35.7671 36.2623C33.3618 38.6709 30.4411 39.8752 27.005 39.8752ZM26.9859 37.0064C29.6203 37.0064 31.8562 36.0783 33.6937 34.2221C35.5312 32.3658 36.45 30.1205 36.45 27.4861C36.45 24.8521 35.5359 22.6209 33.7078 20.7924C31.8793 18.9643 29.648 18.0502 27.014 18.0502C24.3796 18.0502 22.1437 18.9643 20.3062 20.7924C18.4687 22.6209 17.55 24.8521 17.55 27.4861C17.55 30.1205 18.464 32.3658 20.2921 34.2221C22.1206 36.0783 24.3519 37.0064 26.9859 37.0064Z" fill="#203568" style="fill:#203568;fill:color(display-p3 0.1255 0.2078 0.4078);fill-opacity:1;"/>
</g>
</g>
</svg>
