<svg width="20" height="20" viewBox="0 0 20 20" fill="none" xmlns="http://www.w3.org/2000/svg">
<g id="icon/grass">
<mask id="mask0_962_4504" style="mask-type:alpha" maskUnits="userSpaceOnUse" x="0" y="0" width="20" height="20">
<rect id="Bounding box" width="20" height="20" fill="#D9D9D9" style="fill:#D9D9D9;fill:color(display-p3 0.8510 0.8510 0.8510);fill-opacity:1;"/>
</mask>
<g mask="url(#mask0_962_4504)">
<path id="grass" d="M3.14062 15.3587V14.2754H7.08458C6.83347 13.3106 6.35806 12.4783 5.65833 11.7785C4.95847 11.0788 4.11924 10.6033 3.14062 10.3522C3.35535 10.2882 3.57701 10.2401 3.80562 10.2081C4.03437 10.176 4.27 10.1599 4.5125 10.1599C6.03486 10.1599 7.33 10.6458 8.39792 11.6174C9.46569 12.5891 9.99958 13.8362 9.99958 15.3587H3.14062ZM11.0829 15.3587C11.0829 14.9805 11.0474 14.6012 10.9762 14.2208C10.9053 13.8405 10.7907 13.4634 10.6325 13.0895C11.0962 12.2156 11.7539 11.5089 12.6054 10.9693C13.4568 10.4297 14.4172 10.1599 15.4867 10.1599C15.7153 10.1599 15.944 10.176 16.1727 10.2081C16.4013 10.2401 16.6299 10.2882 16.8585 10.3522C15.8799 10.6033 15.0407 11.0822 14.3408 11.7889C13.6411 12.4957 13.1657 13.3245 12.9146 14.2754H16.8585V15.3587H11.0829ZM10.0958 12.0495C10.0369 11.244 10.124 10.4862 10.3569 9.77619C10.5898 9.06632 10.94 8.44452 11.4075 7.91077C11.8749 7.37716 12.4378 6.94584 13.0965 6.61681C13.7552 6.28778 14.4878 6.09709 15.2944 6.04473C14.5327 6.52653 13.9147 7.09618 13.4402 7.75368C12.9659 8.41132 12.6219 9.105 12.4081 9.83473C11.9188 10.0858 11.4672 10.4117 11.0533 10.8122C10.6393 11.2129 10.3201 11.6254 10.0958 12.0495ZM9.06542 10.862C8.87417 10.6505 8.67625 10.464 8.47167 10.3026C8.26694 10.1413 8.07271 10.0179 7.88896 9.93244C7.90507 9.86091 7.91792 9.76473 7.9275 9.64389C7.93708 9.5232 7.94188 9.4025 7.94188 9.28181C7.94188 8.44528 7.80806 7.63382 7.54042 6.84743C7.27278 6.06118 6.87833 5.33632 6.35708 4.67285C7.13903 5.0041 7.8316 5.49153 8.43479 6.13514C9.03785 6.77889 9.47507 7.56014 9.74646 8.47889C9.54771 8.84639 9.3925 9.24063 9.28083 9.6616C9.16917 10.0826 9.09736 10.4827 9.06542 10.862Z" fill="#203568" style="fill:#203568;fill:color(display-p3 0.1255 0.2078 0.4078);fill-opacity:1;"/>
</g>
</g>
</svg>
