<svg width="20" height="20" viewBox="0 0 20 20" fill="none" xmlns="http://www.w3.org/2000/svg">
<g id="icon/grass">
<mask id="mask0_75_364" style="mask-type:alpha" maskUnits="userSpaceOnUse" x="0" y="0" width="20" height="20">
<rect id="Bounding box" width="20" height="20" fill="#D9D9D9" style="fill:#D9D9D9;fill:color(display-p3 0.8510 0.8510 0.8510);fill-opacity:1;"/>
</mask>
<g mask="url(#mask0_75_364)">
<path id="grass" d="M3.14062 15.3592V14.2758H7.08458C6.83347 13.3111 6.35806 12.4788 5.65833 11.779C4.95847 11.0792 4.11924 10.6038 3.14062 10.3527C3.35535 10.2887 3.57701 10.2406 3.80562 10.2085C4.03437 10.1765 4.27 10.1604 4.5125 10.1604C6.03486 10.1604 7.33 10.6463 8.39792 11.6179C9.46569 12.5896 9.99958 13.8367 9.99958 15.3592H3.14062ZM11.0829 15.3592C11.0829 14.981 11.0474 14.6017 10.9762 14.2213C10.9053 13.841 10.7907 13.4639 10.6325 13.09C11.0962 12.2161 11.7539 11.5094 12.6054 10.9698C13.4568 10.4302 14.4172 10.1604 15.4867 10.1604C15.7153 10.1604 15.944 10.1765 16.1727 10.2085C16.4013 10.2406 16.6299 10.2887 16.8585 10.3527C15.8799 10.6038 15.0407 11.0827 14.3408 11.7894C13.6411 12.4962 13.1657 13.325 12.9146 14.2758H16.8585V15.3592H11.0829ZM10.0958 12.05C10.0369 11.2445 10.124 10.4867 10.3569 9.77667C10.5898 9.06681 10.94 8.44501 11.4075 7.91126C11.8749 7.37765 12.4378 6.94633 13.0965 6.6173C13.7552 6.28827 14.4878 6.09758 15.2944 6.04521C14.5327 6.52702 13.9147 7.09667 13.4402 7.75417C12.9659 8.41181 12.6219 9.10549 12.4081 9.83521C11.9188 10.0863 11.4672 10.4122 11.0533 10.8127C10.6393 11.2134 10.3201 11.6258 10.0958 12.05ZM9.06542 10.8625C8.87417 10.651 8.67625 10.4645 8.47167 10.3031C8.26694 10.1417 8.07271 10.0183 7.88896 9.93292C7.90507 9.8614 7.91792 9.76522 7.9275 9.64438C7.93708 9.52369 7.94188 9.40299 7.94188 9.2823C7.94188 8.44577 7.80806 7.63431 7.54042 6.84792C7.27278 6.06167 6.87833 5.33681 6.35708 4.67334C7.13903 5.00459 7.8316 5.49202 8.43479 6.13563C9.03785 6.77938 9.47507 7.56063 9.74646 8.47938C9.54771 8.84688 9.3925 9.24112 9.28083 9.66209C9.16917 10.0831 9.09736 10.4832 9.06542 10.8625Z" fill="#203568" style="fill:#203568;fill:color(display-p3 0.1255 0.2078 0.4078);fill-opacity:1;"/>
</g>
</g>
</svg>
