<svg width="20" height="20" viewBox="0 0 20 20" fill="none" xmlns="http://www.w3.org/2000/svg">
<g id="icon/person">
<mask id="mask0_75_369" style="mask-type:alpha" maskUnits="userSpaceOnUse" x="0" y="0" width="20" height="20">
<rect id="Bounding box" width="20" height="20" fill="#D9D9D9" style="fill:#D9D9D9;fill:color(display-p3 0.8510 0.8510 0.8510);fill-opacity:1;"/>
</mask>
<g mask="url(#mask0_75_369)">
<path id="person" d="M10.0003 9.74333C9.28158 9.74333 8.67137 9.49249 8.1697 8.99083C7.6679 8.48902 7.41699 7.87874 7.41699 7.15999C7.41699 6.44124 7.6679 5.83104 8.1697 5.32937C8.67137 4.82756 9.28158 4.57666 10.0003 4.57666C10.7191 4.57666 11.3293 4.82756 11.831 5.32937C12.3328 5.83104 12.5837 6.44124 12.5837 7.15999C12.5837 7.87874 12.3328 8.48902 11.831 8.99083C11.3293 9.49249 10.7191 9.74333 10.0003 9.74333ZM4.41699 15.4229V13.9035C4.41699 13.6483 4.4931 13.4023 4.64533 13.1656C4.79755 12.929 5.01046 12.7241 5.28408 12.551C6.01046 12.1334 6.77394 11.8132 7.57449 11.5904C8.37505 11.3676 9.1822 11.2562 9.99595 11.2562C10.8097 11.2562 11.6183 11.3676 12.4218 11.5904C13.2253 11.8132 13.9902 12.1334 14.7166 12.551C14.9902 12.7102 15.2031 12.9116 15.3553 13.1552C15.5075 13.3988 15.5837 13.6483 15.5837 13.9035V15.4229H4.41699ZM5.50033 14.3396H14.5003V13.9035C14.5003 13.8156 14.4687 13.7329 14.4053 13.6554C14.3419 13.5779 14.2544 13.5121 14.143 13.4581C13.5361 13.0906 12.8804 12.8123 12.176 12.6231C11.4714 12.4341 10.7462 12.3396 10.0003 12.3396C9.25449 12.3396 8.52928 12.4341 7.8247 12.6231C7.12026 12.8123 6.46456 13.0906 5.85762 13.4581C5.74553 13.5351 5.65796 13.6087 5.59491 13.6792C5.53185 13.7496 5.50033 13.8244 5.50033 13.9035V14.3396ZM10.0047 8.65999C10.4185 8.65999 10.7712 8.5127 11.0628 8.21812C11.3545 7.92353 11.5003 7.56937 11.5003 7.15562C11.5003 6.74187 11.353 6.38916 11.0585 6.09749C10.7639 5.80583 10.4097 5.65999 9.99595 5.65999C9.5822 5.65999 9.22949 5.80735 8.93783 6.10208C8.64616 6.39666 8.50033 6.75083 8.50033 7.16458C8.50033 7.57819 8.64762 7.93083 8.9422 8.22249C9.23678 8.51416 9.59095 8.65999 10.0047 8.65999Z" fill="#203568" style="fill:#203568;fill:color(display-p3 0.1255 0.2078 0.4078);fill-opacity:1;"/>
</g>
</g>
</svg>
