<svg width="48" height="73" viewBox="0 0 48 73" fill="none" xmlns="http://www.w3.org/2000/svg">
<g id="Group 1">
<path id="Vector" d="M34.9347 71.1666H35.4045V20.4996C35.4045 14.8259 33.2834 9.36363 29.4662 5.20397L25.191 0.540405V41.0911V59.6764C27.2323 67.3778 33.0743 70.387 34.9347 71.1666Z" fill="white" style="fill:white;fill-opacity:1;"/>
<path id="Vector_2" d="M9.74376 71.1666H10.2136V20.4996C10.2136 14.8259 8.0924 9.36363 4.27523 5.20397L0 0.540405V41.0911V59.6764C2.0413 67.3778 7.88333 70.387 9.74376 71.1666Z" fill="white" style="fill:white;fill-opacity:1;"/>
<path id="Vector_3" d="M47.5302 72.4976H48V21.8306C48 16.1568 45.8788 10.6946 42.0617 6.53497L37.7841 1.87378V42.4245V61.0098C39.8254 68.7111 45.6674 71.7203 47.5278 72.5L47.5302 72.4976Z" fill="white" style="fill:white;fill-opacity:1;"/>
<path id="Vector_4" d="M18.6067 5.1398C14.6086 9.33273 12.3747 14.9281 12.3747 20.7492V57.3661C12.3747 63.9454 16.9342 69.4386 23.0299 70.8219V0.5L18.6067 5.1398Z" fill="white" style="fill:white;fill-opacity:1;"/>
</g>
</svg>
