<svg width="20" height="20" viewBox="0 0 20 20" fill="none" xmlns="http://www.w3.org/2000/svg">
<mask id="mask0_686_4324" style="mask-type:alpha" maskUnits="userSpaceOnUse" x="0" y="0" width="20" height="20">
<rect width="20" height="20" fill="#D9D9D9" style="fill:#D9D9D9;fill:color(display-p3 0.8510 0.8510 0.8510);fill-opacity:1;"/>
</mask>
<g mask="url(#mask0_686_4324)">
<path d="M15.6844 16.6571C15.4095 16.6571 15.1753 16.5608 14.9819 16.3683C14.7883 16.176 14.6915 15.9424 14.6915 15.6675C14.6915 15.3926 14.7877 15.1585 14.9802 14.965C15.1726 14.7715 15.4062 14.6748 15.681 14.6748C15.9559 14.6748 16.1901 14.771 16.3835 14.9633C16.5771 15.1557 16.674 15.3893 16.674 15.6642C16.674 15.939 16.5777 16.1733 16.3852 16.3669C16.1928 16.5603 15.9592 16.6571 15.6844 16.6571ZM8.04499 17.6571C6.73402 17.6571 5.62263 17.5114 4.71083 17.22C3.79888 16.9287 3.34291 16.5781 3.34291 16.1681C3.34291 15.8703 3.62861 15.5984 4.19999 15.3523C4.77124 15.1062 5.46076 14.9337 6.26854 14.835V16.4975H7.54249V2.48792L13.1842 5.31729L8.54166 7.63854V14.6802C9.77611 14.7492 10.7846 14.9199 11.5673 15.1921C12.3499 15.4644 12.7412 15.788 12.7412 16.1627C12.7412 16.5794 12.2758 16.9326 11.345 17.2223C10.4143 17.5122 9.3143 17.6571 8.04499 17.6571Z" fill="#203568" style="fill:#203568;fill:color(display-p3 0.1255 0.2078 0.4078);fill-opacity:1;"/>
</g>
</svg>
