<svg width="20" height="21" viewBox="0 0 20 21" fill="none" xmlns="http://www.w3.org/2000/svg">
<g id="icon/Default">
<mask id="mask0_686_4942" style="mask-type:alpha" maskUnits="userSpaceOnUse" x="0" y="0" width="20" height="21">
<rect id="Bounding box" y="0.5" width="20" height="20" fill="#D9D9D9" style="fill:#D9D9D9;fill:color(display-p3 0.8510 0.8510 0.8510);fill-opacity:1;"/>
</mask>
<g mask="url(#mask0_686_4942)">
<path id="golf_course" d="M15.6844 17.1572C15.4095 17.1572 15.1753 17.061 14.9819 16.8685C14.7882 16.6761 14.6914 16.4425 14.6914 16.1676C14.6914 15.8928 14.7877 15.6586 14.9802 15.4651C15.1725 15.2716 15.4062 15.1749 15.681 15.1749C15.9559 15.1749 16.19 15.2711 16.3835 15.4635C16.5771 15.6558 16.6739 15.8894 16.6739 16.1643C16.6739 16.4391 16.5777 16.6734 16.3852 16.867C16.1928 17.0605 15.9592 17.1572 15.6844 17.1572ZM8.04498 18.1572C6.73401 18.1572 5.62262 18.0115 4.71081 17.7201C3.79887 17.4289 3.3429 17.0782 3.3429 16.6682C3.3429 16.3705 3.62859 16.0985 4.19998 15.8524C4.77123 15.6063 5.46074 15.4339 6.26852 15.3351V16.9976H7.54248V2.98804L13.1841 5.81741L8.54165 8.13866V15.1803C9.77609 15.2494 10.7846 15.42 11.5673 15.6922C12.3499 15.9646 12.7412 16.2881 12.7412 16.6628C12.7412 17.0795 12.2758 17.4327 11.345 17.7224C10.4143 18.0123 9.31428 18.1572 8.04498 18.1572Z" fill="#FAFBFF" style="fill:#FAFBFF;fill:color(display-p3 0.9804 0.9843 1.0000);fill-opacity:1;"/>
</g>
</g>
</svg>
