<svg width="20" height="20" viewBox="0 0 20 20" fill="none" xmlns="http://www.w3.org/2000/svg">
<g id="icon/Default">
<mask id="mask0_77_337" style="mask-type:alpha" maskUnits="userSpaceOnUse" x="0" y="0" width="20" height="20">
<rect id="Bounding box" width="20" height="20" fill="#D9D9D9" style="fill:#D9D9D9;fill:color(display-p3 0.8510 0.8510 0.8510);fill-opacity:1;"/>
</mask>
<g mask="url(#mask0_77_337)">
<path id="golf_course" d="M15.6842 16.6574C15.4094 16.6574 15.1752 16.5612 14.9817 16.3687C14.7881 16.1763 14.6913 15.9427 14.6913 15.6679C14.6913 15.393 14.7876 15.1588 14.9801 14.9654C15.1724 14.7719 15.406 14.6752 15.6809 14.6752C15.9558 14.6752 16.1899 14.7713 16.3834 14.9637C16.577 15.1561 16.6738 15.3897 16.6738 15.6645C16.6738 15.9394 16.5776 16.1736 16.3851 16.3672C16.1927 16.5607 15.9591 16.6574 15.6842 16.6574ZM8.04486 17.6574C6.73388 17.6574 5.6225 17.5118 4.71069 17.2204C3.79875 16.9291 3.34277 16.5785 3.34277 16.1685C3.34277 15.8707 3.62847 15.5988 4.19986 15.3527C4.77111 15.1065 5.46062 14.9341 6.2684 14.8354V16.4979H7.54236V2.48828L13.184 5.31766L8.54152 7.63891V14.6806C9.77597 14.7496 10.7845 14.9202 11.5671 15.1924C12.3498 15.4648 12.7411 15.7884 12.7411 16.1631C12.7411 16.5797 12.2757 16.9329 11.3449 17.2227C10.4142 17.5125 9.31416 17.6574 8.04486 17.6574Z" fill="#203568" style="fill:#203568;fill:color(display-p3 0.1255 0.2078 0.4078);fill-opacity:1;"/>
</g>
</g>
</svg>
