<svg width="708" height="304" viewBox="0 0 708 304" fill="none" xmlns="http://www.w3.org/2000/svg">
<g clip-path="url(#clip0_326_4568)">
<path d="M327.94 94.96H309.41L275.74 181.29H294.27L301.45 161.71H336.06L343.47 181.29H362.54L327.93 94.96H327.94ZM306.66 147.08L318.5 115.13L330.34 147.08H306.66Z" fill="#203568" style="fill:#203568;fill:color(display-p3 0.1255 0.2078 0.4078);fill-opacity:1;"/>
<path d="M371.82 181.29H401.24C414.31 181.29 423.04 180.73 427.43 179.62C431.81 178.51 435.7 175.89 439.09 171.77C442.48 167.65 444.17 162.5 444.17 156.34C444.17 145.51 438.75 138.48 427.9 135.26C436.03 131.68 440.1 125.45 440.1 116.58C440.1 110.69 437.94 105.61 433.61 101.35C429.29 97.0897 420.15 94.9697 406.21 94.9697H371.82V181.3V181.29ZM399.2 109.22C409.92 109.22 416.58 109.87 419.17 111.16C421.76 112.45 423.06 115.13 423.06 119.19C423.06 123.49 421.58 126.26 418.63 127.5C415.68 128.73 409.7 129.35 400.69 129.35H389.21V109.22H399.19H399.2ZM403.27 143.56C412.4 143.56 418.5 144.39 421.59 146.06C424.68 147.73 426.22 150.85 426.22 155.42C426.22 159.99 424.77 163.12 421.86 164.54C418.95 165.95 413.43 166.66 405.3 166.66H389.21V143.55H403.26L403.27 143.56Z" fill="#203568" style="fill:#203568;fill:color(display-p3 0.1255 0.2078 0.4078);fill-opacity:1;"/>
<path d="M466.46 170.93C473.92 178.83 484.26 182.78 497.48 182.78C510.43 182.78 520.61 178.77 528.01 170.75C535.4 162.73 539.1 151.89 539.1 138.24C539.1 126.02 535.83 115.51 529.3 106.69C522.76 97.87 512.02 93.46 497.08 93.46C484.01 93.46 473.77 97.5 466.38 105.58C458.98 113.66 455.29 124.66 455.29 138.59C455.29 152.25 459.02 163.03 466.47 170.92L466.46 170.93ZM497.26 108.27C513.2 108.27 521.16 118.12 521.16 137.83C521.16 146.35 519.19 153.47 515.24 159.2C511.29 164.93 505.3 167.8 497.26 167.8C489.64 167.8 483.73 165.09 479.52 159.68C475.32 154.26 473.22 147.06 473.22 138.06C473.22 118.2 481.23 108.27 497.26 108.27Z" fill="#203568" style="fill:#203568;fill:color(display-p3 0.1255 0.2078 0.4078);fill-opacity:1;"/>
<path d="M552.84 140.99C552.84 152.93 553.76 161.34 555.6 166.22C557.44 171.09 561.01 175.07 566.33 178.16C571.65 181.24 578.99 182.78 588.36 182.78C597.85 182.78 605.12 180.99 610.18 177.41C615.24 173.83 618.42 169.39 619.71 164.1C621.01 158.8 621.65 150.86 621.65 140.27V94.96H604.25V142.66C604.25 153.37 603.11 160.24 600.84 163.26C598.56 166.28 594.22 167.79 587.8 167.79C582.74 167.79 578.79 166.74 575.94 164.65C573.09 162.56 571.43 159.94 570.95 156.8C570.47 153.66 570.23 148.63 570.23 141.71V94.96H552.83V140.99H552.84Z" fill="#203568" style="fill:#203568;fill:color(display-p3 0.1255 0.2078 0.4078);fill-opacity:1;"/>
<path d="M677.01 181.29V109.58H702.54V94.96H633.86V109.58H659.62V181.29H677.02H677.01Z" fill="#203568" style="fill:#203568;fill:color(display-p3 0.1255 0.2078 0.4078);fill-opacity:1;"/>
<path d="M148.72 298.2H150.72V85.0403C150.72 61.1703 141.69 38.1903 125.44 20.6903L107.24 1.07031V171.67V249.86C115.93 282.26 140.8 294.92 148.72 298.2Z" fill="#203568" style="fill:#203568;fill:color(display-p3 0.1255 0.2078 0.4078);fill-opacity:1;"/>
<path d="M41.48 298.2H43.48V85.0403C43.48 61.1703 34.45 38.1903 18.2 20.6903L0 1.07031V171.67V249.86C8.69 282.26 33.56 294.92 41.48 298.2Z" fill="#203568" style="fill:#203568;fill:color(display-p3 0.1255 0.2078 0.4078);fill-opacity:1;"/>
<path d="M202.34 303.801H204.34V90.6407C204.34 66.7707 195.31 43.7907 179.06 26.2907L160.85 6.68066V177.281V255.471C169.54 287.871 194.41 300.531 202.33 303.811L202.34 303.801Z" fill="#203568" style="fill:#203568;fill:color(display-p3 0.1255 0.2078 0.4078);fill-opacity:1;"/>
<path d="M79.2102 20.4204C62.1902 38.0604 52.6802 61.6004 52.6802 86.0904V240.14C52.6802 267.82 72.0902 290.93 98.0402 296.75V0.900391L79.2102 20.4204Z" fill="#203568" style="fill:#203568;fill:color(display-p3 0.1255 0.2078 0.4078);fill-opacity:1;"/>
<path d="M338.77 265.6V277.14C332.22 282.14 325.1 284.65 317.4 284.65C309.07 284.65 302.69 281.8 298.26 276.09C293.83 270.38 291.61 262.6 291.61 252.75C291.61 232.76 300.27 222.77 317.59 222.77C328.36 222.77 335.16 227.57 337.98 237.17L355.88 233.75C352.03 216.17 339.27 207.38 317.59 207.38C305.16 207.38 294.61 211.23 285.95 218.92C277.29 226.61 272.96 238.14 272.96 253.5C272.96 267.23 276.84 278.45 284.61 287.16C292.37 295.87 303.76 300.23 318.76 300.23C333.76 300.23 347.02 295.62 357.04 286.39V250.64H317.96V265.61H338.77V265.6Z" fill="#203568" style="fill:#203568;fill:color(display-p3 0.1255 0.2078 0.4078);fill-opacity:1;"/>
<path d="M392.09 298.68V261.19H395.71C400.84 261.19 404.6 261.86 406.98 263.21C409.36 264.56 411.5 266.71 413.42 269.68L433.05 298.68H454.8L443.81 281.18C436.51 269.67 429.84 262.3 423.8 259.08C439.58 256.76 447.48 248.45 447.48 234.12C447.48 224.36 444.57 217.72 438.74 214.2C432.91 210.68 424.1 208.92 412.29 208.92H374.01V298.67H392.1L392.09 298.68ZM392.09 224.13H406.32C416.06 224.13 422.24 224.87 424.87 226.34C427.5 227.81 428.82 230.78 428.82 235.25C428.82 240.01 427.21 243.12 424.01 244.59C420.8 246.06 414.64 246.8 405.52 246.8H392.09V224.14V224.13Z" fill="#203568" style="fill:#203568;fill:color(display-p3 0.1255 0.2078 0.4078);fill-opacity:1;"/>
<path d="M509.62 208.92H490.36L455.36 298.67H474.62L482.09 278.31H518.07L525.77 298.67H545.6L509.62 208.92ZM487.5 263.11L499.81 229.89L512.12 263.11H487.5Z" fill="#203568" style="fill:#203568;fill:color(display-p3 0.1255 0.2078 0.4078);fill-opacity:1;"/>
<path d="M587.56 300.23C611.55 300.23 623.54 291 623.54 272.55C623.54 266.14 621.84 260.56 618.44 255.82C615.04 251.08 605.77 246.79 590.61 242.94C581.25 240.5 575.67 238.42 573.89 236.7C572.11 234.98 571.21 233.15 571.21 231.21C571.21 225.33 576.27 222.39 586.38 222.39C595.99 222.39 601.5 226.68 602.92 235.24L621.01 234.68C620.38 216.47 608.91 207.37 586.57 207.37C576.71 207.37 568.79 209.55 562.83 213.92C556.86 218.28 553.88 224.44 553.88 232.38C553.88 245.58 563.43 254.54 582.54 259.26C592.69 261.82 599.04 263.91 601.61 265.52C604.18 267.13 605.46 269.47 605.46 272.53C605.46 280.85 599.56 285.01 587.75 285.01C576.72 285.01 570.18 279.26 568.11 267.75L550.4 269.44C552.84 289.96 565.23 300.22 587.56 300.22V300.23Z" fill="#203568" style="fill:#203568;fill:color(display-p3 0.1255 0.2078 0.4078);fill-opacity:1;"/>
<path d="M671.45 300.23C695.44 300.23 707.43 291 707.43 272.55C707.43 266.14 705.73 260.56 702.33 255.82C698.93 251.08 689.66 246.79 674.5 242.94C665.13 240.5 659.56 238.42 657.78 236.7C656 234.98 655.1 233.15 655.1 231.21C655.1 225.33 660.16 222.39 670.27 222.39C679.88 222.39 685.39 226.68 686.81 235.24L704.9 234.68C704.27 216.47 692.8 207.37 670.46 207.37C660.6 207.37 652.68 209.55 646.72 213.92C640.75 218.28 637.77 224.44 637.77 232.38C637.77 245.58 647.32 254.54 666.43 259.26C676.58 261.82 682.93 263.91 685.5 265.52C688.07 267.13 689.35 269.47 689.35 272.53C689.35 280.85 683.45 285.01 671.64 285.01C660.61 285.01 654.07 279.26 652 267.75L634.29 269.44C636.73 289.96 649.12 300.22 671.45 300.22V300.23Z" fill="#203568" style="fill:#203568;fill:color(display-p3 0.1255 0.2078 0.4078);fill-opacity:1;"/>
<path d="M312.27 68.1099V55.2799H316.85V52.6699H304.56V55.2799H309.15V68.1099H312.27Z" fill="#203568" style="fill:#203568;fill:color(display-p3 0.1255 0.2078 0.4078);fill-opacity:1;"/>
<path d="M321.99 68.1099V61.3599H328.11V68.1099H331.23V52.6699H328.11V58.7499H321.99V52.6699H318.87V68.1099H321.99Z" fill="#203568" style="fill:#203568;fill:color(display-p3 0.1255 0.2078 0.4078);fill-opacity:1;"/>
<path d="M337.49 68.1099V52.6699H334.37V68.1099H337.49Z" fill="#203568" style="fill:#203568;fill:color(display-p3 0.1255 0.2078 0.4078);fill-opacity:1;"/>
<path d="M343.39 68.1099V58.0399L349.62 68.1099H352.75V52.6699H349.85V62.9799L343.52 52.6699H340.48V68.1099H343.38H343.39Z" fill="#203568" style="fill:#203568;fill:color(display-p3 0.1255 0.2078 0.4078);fill-opacity:1;"/>
<path d="M359.22 68.1099V63.4399L361.75 60.8599L366 68.1099H370.04L363.9 58.6799L369.72 52.6699H365.52L359.21 59.5299V52.6699H356.09V68.1099H359.21H359.22Z" fill="#203568" style="fill:#203568;fill:color(display-p3 0.1255 0.2078 0.4078);fill-opacity:1;"/>
<path d="M380.8 68.1097V61.5497H387.25V58.9397H380.8V55.2897H388.28V52.6797H377.68V68.1197H380.8V68.1097Z" fill="#203568" style="fill:#203568;fill:color(display-p3 0.1255 0.2078 0.4078);fill-opacity:1;"/>
<path d="M392.25 66.2802C393.61 67.6802 395.43 68.3802 397.73 68.3802C400.03 68.3802 401.82 67.6802 403.17 66.2702C404.53 64.8602 405.2 62.9102 405.2 60.4202C405.2 57.9302 404.52 55.9402 403.15 54.5302C401.78 53.1202 399.96 52.4102 397.68 52.4102C396.42 52.4102 395.31 52.6102 394.35 53.0202C393.63 53.3202 392.96 53.7902 392.35 54.4102C391.74 55.0402 391.26 55.7402 390.91 56.5302C390.44 57.6002 390.2 58.9202 390.2 60.4902C390.2 62.9502 390.88 64.8802 392.24 66.2802H392.25ZM394.62 56.4002C395.41 55.5202 396.44 55.0802 397.73 55.0802C399.02 55.0802 400.05 55.5202 400.83 56.3902C401.61 57.2602 402 58.5802 402 60.3502C402 62.1202 401.6 63.4802 400.8 64.3802C400 65.2802 398.98 65.7202 397.74 65.7202C396.5 65.7202 395.47 65.2702 394.66 64.3702C393.85 63.4702 393.45 62.1402 393.45 60.3902C393.45 58.6402 393.84 57.2802 394.63 56.4002H394.62Z" fill="#203568" style="fill:#203568;fill:color(display-p3 0.1255 0.2078 0.4078);fill-opacity:1;"/>
<path d="M410.78 68.1104V61.6604H411.41C412.13 61.6604 412.65 61.7204 412.98 61.8304C413.31 61.9404 413.62 62.1604 413.92 62.4704C414.22 62.7804 414.76 63.5404 415.56 64.7404L417.82 68.1004H421.55L419.66 65.0904C418.91 63.8904 418.32 63.0504 417.88 62.5804C417.44 62.1104 416.88 61.6804 416.21 61.2804C417.57 61.0804 418.59 60.6104 419.27 59.8504C419.95 59.1004 420.29 58.1404 420.29 56.9804C420.29 56.0704 420.07 55.2604 419.62 54.5504C419.17 53.8404 418.57 53.3504 417.82 53.0704C417.07 52.7904 415.87 52.6504 414.22 52.6504H407.65V68.0904H410.77L410.78 68.1104ZM410.78 55.2804H413.22C414.49 55.2804 415.25 55.3004 415.5 55.3304C416.01 55.4104 416.4 55.6204 416.68 55.9404C416.96 56.2604 417.1 56.6804 417.1 57.2004C417.1 57.6604 416.99 58.0504 416.78 58.3604C416.57 58.6704 416.28 58.8904 415.9 59.0104C415.53 59.1404 414.59 59.2004 413.09 59.2004H410.78V55.2804Z" fill="#203568" style="fill:#203568;fill:color(display-p3 0.1255 0.2078 0.4078);fill-opacity:1;"/>
<path d="M436.53 68.1099L442.07 52.6699H438.76L434.97 64.0999L431.06 52.6699H427.67L433.2 68.1099H436.53Z" fill="#203568" style="fill:#203568;fill:color(display-p3 0.1255 0.2078 0.4078);fill-opacity:1;"/>
<path d="M449.8 52.6699H446.5L440.48 68.1099H443.79L445.07 64.5999H451.25L452.6 68.1099H456L449.81 52.6699H449.8ZM446.03 61.9999L448.12 56.2699L450.25 61.9999H446.03Z" fill="#203568" style="fill:#203568;fill:color(display-p3 0.1255 0.2078 0.4078);fill-opacity:1;"/>
<path d="M468.62 68.1098V65.5098H460.86V52.7998H457.74V68.1198H468.62V68.1098Z" fill="#203568" style="fill:#203568;fill:color(display-p3 0.1255 0.2078 0.4078);fill-opacity:1;"/>
<path d="M470.82 60.9099C470.82 62.6399 470.92 63.9399 471.13 64.8299C471.27 65.4299 471.56 65.9999 472.01 66.5399C472.45 67.0799 473.06 67.5299 473.82 67.8699C474.58 68.2099 475.7 68.3799 477.18 68.3799C478.4 68.3799 479.39 68.2199 480.15 67.9099C480.91 67.5999 481.52 67.1799 481.97 66.6499C482.42 66.1199 482.73 65.4799 482.9 64.7099C483.07 63.9399 483.15 62.6399 483.15 60.7799V52.6699H480.03V61.2099C480.03 62.4299 479.99 63.3099 479.89 63.8299C479.8 64.3599 479.53 64.7999 479.08 65.1599C478.63 65.5199 477.96 65.6999 477.08 65.6999C476.2 65.6999 475.52 65.5099 475.02 65.1299C474.52 64.7499 474.2 64.2399 474.07 63.6099C473.99 63.2199 473.95 62.3599 473.95 61.0299V52.6699H470.83V60.9099H470.82Z" fill="#203568" style="fill:#203568;fill:color(display-p3 0.1255 0.2078 0.4078);fill-opacity:1;"/>
<path d="M498.2 68.1097V65.5097H489.56V61.3097H497.32V58.7097H489.56V55.2897H497.9V52.6797H486.44V68.1197H498.2V68.1097Z" fill="#203568" style="fill:#203568;fill:color(display-p3 0.1255 0.2078 0.4078);fill-opacity:1;"/>
</g>
<defs>
<clipPath id="clip0_326_4568">
<rect width="707.44" height="302.9" fill="white" style="fill:white;fill-opacity:1;" transform="translate(0 0.900391)"/>
</clipPath>
</defs>
</svg>
