<svg width="20" height="20" viewBox="0 0 20 20" fill="none" xmlns="http://www.w3.org/2000/svg">
<g id="icon/person">
<mask id="mask0_962_5022" style="mask-type:alpha" maskUnits="userSpaceOnUse" x="0" y="0" width="20" height="20">
<rect id="Bounding box" width="20" height="20" fill="#D9D9D9" style="fill:#D9D9D9;fill:color(display-p3 0.8510 0.8510 0.8510);fill-opacity:1;"/>
</mask>
<g mask="url(#mask0_962_5022)">
<path id="person" d="M10.0003 9.74382C9.28158 9.74382 8.67137 9.49298 8.1697 8.99132C7.6679 8.48951 7.41699 7.87923 7.41699 7.16048C7.41699 6.44173 7.6679 5.83152 8.1697 5.32986C8.67137 4.82805 9.28158 4.57715 10.0003 4.57715C10.7191 4.57715 11.3293 4.82805 11.831 5.32986C12.3328 5.83152 12.5837 6.44173 12.5837 7.16048C12.5837 7.87923 12.3328 8.48951 11.831 8.99132C11.3293 9.49298 10.7191 9.74382 10.0003 9.74382ZM4.41699 15.4234V13.904C4.41699 13.6487 4.4931 13.4028 4.64533 13.1661C4.79755 12.9294 5.01046 12.7246 5.28408 12.5515C6.01046 12.1339 6.77394 11.8137 7.57449 11.5909C8.37505 11.3681 9.1822 11.2567 9.99595 11.2567C10.8097 11.2567 11.6183 11.3681 12.4218 11.5909C13.2253 11.8137 13.9902 12.1339 14.7166 12.5515C14.9902 12.7107 15.2031 12.9121 15.3553 13.1557C15.5075 13.3993 15.5837 13.6487 15.5837 13.904V15.4234H4.41699ZM5.50033 14.3401H14.5003V13.904C14.5003 13.8161 14.4687 13.7334 14.4053 13.6559C14.3419 13.5784 14.2544 13.5126 14.143 13.4586C13.5361 13.0911 12.8804 12.8128 12.176 12.6236C11.4714 12.4346 10.7462 12.3401 10.0003 12.3401C9.25449 12.3401 8.52928 12.4346 7.8247 12.6236C7.12026 12.8128 6.46456 13.0911 5.85762 13.4586C5.74553 13.5356 5.65796 13.6092 5.59491 13.6796C5.53185 13.7501 5.50033 13.8249 5.50033 13.904V14.3401ZM10.0047 8.66048C10.4185 8.66048 10.7712 8.51319 11.0628 8.21861C11.3545 7.92402 11.5003 7.56986 11.5003 7.15611C11.5003 6.74236 11.353 6.38965 11.0585 6.09798C10.7639 5.80632 10.4097 5.66048 9.99595 5.66048C9.5822 5.66048 9.22949 5.80784 8.93783 6.10256C8.64616 6.39715 8.50033 6.75131 8.50033 7.16506C8.50033 7.57868 8.64762 7.93132 8.9422 8.22298C9.23678 8.51465 9.59095 8.66048 10.0047 8.66048Z" fill="#203568" style="fill:#203568;fill:color(display-p3 0.1255 0.2078 0.4078);fill-opacity:1;"/>
</g>
</g>
</svg>
