<svg width="34" height="51" viewBox="0 0 34 51" fill="none" xmlns="http://www.w3.org/2000/svg">
<path d="M13.0941 3.30434C10.4676 6.28558 9 10.2639 9 14.4029V40.438C9 45.1161 11.9954 49.0218 16 50.0054V0.00537109L13.0941 3.30434Z" fill="#203568" style="fill:#203568;fill:color(display-p3 0.1255 0.2078 0.4078);fill-opacity:1;"/>
<path d="M24.678 50.0054H25V14.1356C25 10.1188 23.5462 6.2518 20.9301 3.30696L18 0.00537109V28.7133V41.8709C19.399 47.3231 23.4029 49.4534 24.678 50.0054Z" fill="#203568" style="fill:#203568;fill:color(display-p3 0.1255 0.2078 0.4078);fill-opacity:1;"/>
<path d="M6.67801 50.0054H7V14.1356C7 10.1188 5.54623 6.2518 2.93008 3.30696L0 0.00537109V28.7133V41.8709C1.39903 47.3231 5.40294 49.4534 6.67801 50.0054Z" fill="#203568" style="fill:#203568;fill:color(display-p3 0.1255 0.2078 0.4078);fill-opacity:1;"/>
<path d="M33.6781 51.0037H34V15.1339C34 11.1171 32.5466 7.25011 29.931 4.30527L27 1.00537V29.7133V42.8709C28.3987 48.323 32.4017 50.4534 33.6765 51.0054L33.6781 51.0037Z" fill="#203568" style="fill:#203568;fill:color(display-p3 0.1255 0.2078 0.4078);fill-opacity:1;"/>
</svg>
