<svg width="179" height="100" viewBox="0 0 179 100" fill="none" xmlns="http://www.w3.org/2000/svg">
<g id="Frame">
<path id="Vector" d="M62.0701 44.26H65.2801V57.26H62.0701V44.26ZM66.5601 52.37C66.5601 49.15 68.5601 47.22 71.5601 47.22C74.5601 47.22 76.5601 49.15 76.5601 52.37C76.5601 55.59 74.6301 57.54 71.5601 57.54C68.4901 57.54 66.5601 55.66 66.5601 52.37ZM73.3801 52.37C73.3801 50.6 72.6901 49.56 71.5901 49.56C70.4901 49.56 69.8101 50.56 69.8101 52.37C69.8101 54.18 70.4901 55.17 71.5901 55.17C72.6901 55.17 73.4001 54.18 73.4001 52.38L73.3801 52.37ZM77.8401 57.93H80.9401C81.0812 58.2637 81.3277 58.5421 81.6418 58.7227C81.956 58.9033 82.3207 58.976 82.6801 58.93C83.9101 58.93 84.5501 58.27 84.5501 57.29V55.49H84.5601C84.2952 56.0505 83.8668 56.5176 83.3313 56.83C82.7959 57.1424 82.1783 57.2853 81.5601 57.24C79.2101 57.24 77.6501 55.45 77.6501 52.37C77.6501 49.29 79.1401 47.37 81.6501 47.37C82.2842 47.336 82.9132 47.4996 83.4505 47.8381C83.9878 48.1766 84.4069 48.6734 84.6501 49.26H84.5601V47.45H87.7401V57.19C87.7401 59.54 85.6601 61.01 82.6001 61.01C79.8201 61 78.0401 59.73 77.8601 57.94L77.8401 57.93ZM84.5601 52.37C84.5601 50.8 83.8401 49.81 82.7001 49.81C81.5601 49.81 80.8601 50.81 80.8601 52.37C80.8601 53.93 81.5501 54.85 82.7001 54.85C83.8501 54.85 84.5601 54 84.5601 52.37ZM89.0101 52.37C89.0101 49.15 91.0101 47.22 94.0101 47.22C97.0101 47.22 99.0101 49.15 99.0101 52.37C99.0101 55.59 97.0701 57.54 94.0101 57.54C90.9501 57.54 89.0301 55.66 89.0301 52.37H89.0101ZM95.8301 52.37C95.8301 50.6 95.1301 49.56 94.0401 49.56C92.9501 49.56 92.2601 50.56 92.2601 52.37C92.2601 54.18 92.9401 55.17 94.0401 55.17C95.1401 55.17 95.8501 54.18 95.8501 52.38L95.8301 52.37ZM100.31 45.08C100.296 44.753 100.38 44.4293 100.552 44.1506C100.723 43.8718 100.974 43.6508 101.272 43.5158C101.571 43.3809 101.902 43.3383 102.225 43.3934C102.548 43.4486 102.846 43.599 103.083 43.8253C103.319 44.0516 103.482 44.3435 103.552 44.6634C103.621 44.9833 103.593 45.3166 103.471 45.6203C103.349 45.9241 103.139 46.1845 102.868 46.368C102.597 46.5515 102.277 46.6497 101.95 46.65C101.741 46.6553 101.533 46.619 101.338 46.5432C101.143 46.4675 100.965 46.3537 100.814 46.2086C100.663 46.0635 100.543 45.8898 100.46 45.6978C100.377 45.5058 100.333 45.2992 100.33 45.09L100.31 45.08ZM100.31 47.44H103.56V57.3H100.36L100.31 47.44ZM115.25 52.37C115.25 55.58 113.81 57.44 111.36 57.44C110.733 57.4787 110.109 57.3239 109.572 56.9967C109.036 56.6694 108.613 56.1854 108.36 55.61H108.3V60.47H105.09V47.47H108.28V49.23H108.34C108.584 48.6432 109.003 48.146 109.54 47.806C110.077 47.466 110.705 47.2998 111.34 47.33C113.86 47.31 115.31 49.16 115.31 52.38L115.25 52.37ZM111.98 52.37C111.98 50.81 111.25 49.8 110.12 49.8C108.99 49.8 108.28 50.8 108.27 52.37C108.26 53.94 108.99 54.93 110.12 54.93C111.25 54.93 112.04 54 112.04 52.38L111.98 52.37ZM120.73 47.21C123.42 47.21 125.09 48.48 125.11 50.52H122.18C122.18 49.81 121.59 49.37 120.71 49.37C119.83 49.37 119.41 49.71 119.41 50.22C119.41 50.73 119.78 50.89 120.52 51.04L122.58 51.46C124.58 51.88 125.38 52.68 125.38 54.17C125.38 56.17 123.53 57.53 120.78 57.53C118.03 57.53 116.24 56.21 116.11 54.2H119.22C119.31 54.93 119.89 55.36 120.83 55.36C121.77 55.36 122.21 55.06 122.21 54.53C122.21 54 121.91 53.91 121.14 53.75L119.28 53.36C117.35 52.95 116.34 51.94 116.34 50.43C116.4 48.47 118.08 47.22 120.79 47.22L120.73 47.21ZM136.13 57.29H133.02V55.44H132.96C132.786 56.057 132.407 56.5964 131.885 56.969C131.363 57.3417 130.73 57.5254 130.09 57.49C129.607 57.5057 129.126 57.4191 128.678 57.2357C128.231 57.0524 127.827 56.7765 127.494 56.4261C127.16 56.0758 126.905 55.6589 126.744 55.2029C126.583 54.7468 126.52 54.2619 126.56 53.78V47.45H129.77V53.09C129.77 54.25 130.38 54.88 131.38 54.88C131.615 54.8782 131.846 54.8261 132.059 54.7272C132.272 54.6284 132.461 54.485 132.613 54.3068C132.766 54.1286 132.879 53.9197 132.944 53.6943C133.009 53.4688 133.024 53.2321 132.99 53V47.45H136.19L136.13 57.29ZM137.68 47.44H140.8V49.34H140.87C141.042 48.7313 141.412 48.197 141.92 47.8206C142.429 47.4443 143.048 47.2471 143.68 47.26C144.315 47.2048 144.948 47.3884 145.454 47.7749C145.961 48.1614 146.305 48.723 146.42 49.35H146.56C146.76 48.7197 147.162 48.1731 147.705 47.7951C148.247 47.4172 148.9 47.229 149.56 47.26C149.999 47.2433 150.437 47.3195 150.844 47.4835C151.252 47.6476 151.62 47.8959 151.925 48.2121C152.23 48.5284 152.464 48.9054 152.613 49.3187C152.763 49.7319 152.823 50.1719 152.79 50.61V57.3H149.56V51.43C149.56 50.43 149.09 49.87 148.18 49.87C147.978 49.8667 147.778 49.907 147.593 49.9883C147.409 50.0696 147.244 50.1899 147.11 50.3409C146.976 50.4919 146.876 50.6701 146.817 50.8633C146.759 51.0564 146.743 51.26 146.77 51.46V57.3H143.71V51.4C143.71 50.4 143.22 49.87 142.34 49.87C142.136 49.8684 141.934 49.9104 141.748 49.9932C141.561 50.0761 141.395 50.1978 141.26 50.3503C141.124 50.5028 141.023 50.6825 140.963 50.8773C140.902 51.0722 140.884 51.2776 140.91 51.48V57.3H137.7L137.68 47.44ZM55.7201 45.11C55.7202 43.1197 55.1192 41.1757 53.9957 39.5328C52.8723 37.8898 51.2789 36.6245 49.4242 35.9025C47.5694 35.1805 45.5399 35.0355 43.6013 35.4865C41.6628 35.9375 39.9057 36.9634 38.5601 38.43H26.0801V64.77H52.4301V52.46C53.4643 51.5349 54.2919 50.4022 54.8588 49.1358C55.4256 47.8693 55.7191 46.4975 55.7201 45.11ZM50.6501 45.11C50.6521 46.0637 50.3711 46.9966 49.8426 47.7905C49.3142 48.5845 48.5621 49.2038 47.6816 49.5702C46.801 49.9365 45.8315 50.0334 44.8959 49.8486C43.9602 49.6637 43.1005 49.2055 42.4254 48.5318C41.7503 47.8581 41.2902 46.9993 41.1034 46.064C40.9166 45.1287 41.0115 44.1591 41.376 43.2778C41.7405 42.3964 42.3583 41.6431 43.1512 41.113C43.9441 40.5829 44.8763 40.3 45.8301 40.3C47.1067 40.3 48.3312 40.8064 49.2348 41.7082C50.1384 42.6099 50.6474 43.8334 50.6501 45.11ZM47.3601 59.7H31.1501V43.5H36.0901C35.9947 44.0314 35.9445 44.57 35.9401 45.11C35.9427 47.7322 36.9856 50.2462 38.8397 52.1003C40.6939 53.9545 43.2079 54.9973 45.8301 55C46.3427 54.9973 46.8543 54.9538 47.3601 54.87V59.7Z" fill="#394149" style="fill:#394149;fill:color(display-p3 0.2235 0.2549 0.2863);fill-opacity:1;"/>
</g>
</svg>
