<svg width="179" height="100" viewBox="0 0 179 100" fill="none" xmlns="http://www.w3.org/2000/svg">
<g id="Frame">
<path id="Vector" d="M54.51 45.71C54.87 45.71 54.99 45.84 54.99 46.19V54.11H59.06C59.41 54.11 59.54 54.24 59.54 54.59V55.29C59.54 55.64 59.41 55.77 59.06 55.77H53.7C53.35 55.77 53.21 55.64 53.21 55.29V46.19C53.21 45.84 53.35 45.71 53.7 45.71H54.51ZM63.09 49.2C63.09 46.89 64.55 45.5 67.09 45.5C69.63 45.5 71.09 46.89 71.09 49.2V52.28C71.09 54.59 69.62 55.98 67.09 55.98C64.56 55.98 63.09 54.59 63.09 52.28V49.2ZM69.41 49.2C69.41 47.9 68.6 47.2 67.14 47.2C65.68 47.2 64.88 47.91 64.88 49.2V52.3C64.88 53.61 65.68 54.3 67.14 54.3C68.6 54.3 69.41 53.58 69.41 52.3V49.2ZM83 50.26C83.39 50.26 83.48 50.39 83.48 50.74V52.64C83.4906 53.0875 83.4009 53.5318 83.2175 53.9401C83.034 54.3485 82.7616 54.7106 82.42 55C81.5717 55.6755 80.5021 56.0107 79.42 55.94C76.83 55.94 75.42 54.55 75.42 52.24V49.14C75.42 46.86 76.88 45.46 79.42 45.46C81.42 45.46 82.72 46.25 83.27 47.83C83.3008 47.8894 83.3172 47.9551 83.3182 48.022C83.3191 48.0888 83.3044 48.155 83.2753 48.2152C83.2462 48.2753 83.2034 48.3279 83.1504 48.3687C83.0974 48.4094 83.0356 48.4373 82.97 48.45L82.19 48.72C81.85 48.84 81.71 48.77 81.59 48.42C81.4243 47.9929 81.121 47.6331 80.728 47.3977C80.335 47.1623 79.8748 47.0646 79.42 47.12C77.95 47.12 77.15 47.83 77.15 49.12V52.3C77.15 53.61 77.96 54.3 79.42 54.3C80.88 54.3 81.78 53.63 81.78 52.65V51.91H79.61C79.25 51.91 79.12 51.77 79.12 51.42V50.74C79.12 50.39 79.25 50.26 79.61 50.26H83ZM87.61 49.2C87.61 46.89 89.07 45.5 91.61 45.5C94.15 45.5 95.61 46.89 95.61 49.2V52.28C95.61 54.59 94.14 55.98 91.61 55.98C89.08 55.98 87.61 54.59 87.61 52.28V49.2ZM93.92 49.2C93.92 47.9 93.11 47.2 91.66 47.2C90.21 47.2 89.39 47.91 89.39 49.2V52.3C89.39 53.61 90.2 54.3 91.66 54.3C93.12 54.3 93.92 53.58 93.92 52.3V49.2ZM100.32 46C100.32 45.78 100.39 45.71 100.61 45.71H101.07C101.29 45.71 101.34 45.78 101.34 46V55.48C101.34 55.7 101.34 55.77 101.07 55.77H100.61C100.39 55.77 100.32 55.7 100.32 55.48V46ZM110.45 45.71C111.283 45.71 112.081 46.0408 112.67 46.6297C113.259 47.2186 113.59 48.0172 113.59 48.85C113.59 49.6828 113.259 50.4815 112.67 51.0703C112.081 51.6592 111.283 51.99 110.45 51.99H107.45V55.48C107.45 55.7 107.4 55.77 107.19 55.77H106.72C106.51 55.77 106.43 55.7 106.43 55.48V46C106.43 45.78 106.51 45.71 106.72 45.71H110.45ZM110.36 51C110.646 51 110.93 50.9436 111.194 50.8341C111.459 50.7245 111.699 50.5639 111.901 50.3615C112.104 50.1591 112.264 49.9188 112.374 49.6543C112.484 49.3898 112.54 49.1063 112.54 48.82C112.54 48.5337 112.484 48.2502 112.374 47.9858C112.264 47.7213 112.104 47.481 111.901 47.2785C111.699 47.0761 111.459 46.9155 111.194 46.806C110.93 46.6964 110.646 46.64 110.36 46.64H107.36V51H110.36ZM121.4 45.51C122.172 45.4248 122.951 45.5909 123.621 45.9836C124.291 46.3764 124.817 46.9748 125.12 47.69C125.2 47.85 125.12 47.98 124.96 48.06L124.52 48.26C124.34 48.33 124.27 48.32 124.16 48.13C123.933 47.5992 123.544 47.1542 123.048 46.8594C122.552 46.5646 121.975 46.4352 121.4 46.49C119.71 46.49 118.79 47.16 118.79 48.36C118.78 48.7268 118.903 49.0847 119.137 49.3677C119.37 49.6507 119.698 49.8398 120.06 49.9C120.598 50.0754 121.155 50.1829 121.72 50.22C122.403 50.2565 123.077 50.3946 123.72 50.63C124.213 50.7859 124.637 51.1065 124.921 51.5381C125.205 51.9697 125.332 52.4859 125.28 53C125.28 54.87 123.92 56 121.42 56C120.6 56.0938 119.773 55.9038 119.076 55.4616C118.379 55.0195 117.854 54.3519 117.59 53.57C117.572 53.5344 117.563 53.4953 117.562 53.4555C117.561 53.4157 117.569 53.3763 117.586 53.34C117.602 53.3037 117.626 53.2714 117.656 53.2455C117.686 53.2196 117.722 53.2006 117.76 53.19L118.2 53.03C118.235 53.0159 118.272 53.0091 118.309 53.0101C118.347 53.0111 118.384 53.0198 118.417 53.0358C118.451 53.0518 118.481 53.0747 118.506 53.1029C118.531 53.1312 118.549 53.1643 118.56 53.2C118.784 53.7649 119.181 54.2439 119.696 54.5676C120.21 54.8912 120.814 55.0427 121.42 55C123.31 55 124.24 54.34 124.24 53C124.258 52.6478 124.15 52.3007 123.935 52.0205C123.721 51.7404 123.415 51.5453 123.07 51.47C122.553 51.3157 122.019 51.2217 121.48 51.19L120.4 51.05C120.062 50.9783 119.728 50.8881 119.4 50.78C119.076 50.6821 118.774 50.5225 118.51 50.31C118.245 50.0698 118.036 49.7742 117.897 49.4441C117.759 49.114 117.695 48.7576 117.71 48.4C117.78 46.65 119.09 45.51 121.4 45.51ZM130.67 52.35C130.712 53.0572 131.023 53.7215 131.539 54.2072C132.055 54.6929 132.737 54.9634 133.445 54.9634C134.153 54.9634 134.835 54.6929 135.351 54.2072C135.867 53.7215 136.178 53.0572 136.22 52.35V46C136.22 45.78 136.29 45.71 136.51 45.71H136.97C137.19 45.71 137.26 45.78 137.26 46V52.34C137.26 54.61 135.92 55.98 133.45 55.98C130.98 55.98 129.64 54.61 129.64 52.34V46C129.64 45.78 129.71 45.71 129.92 45.71H130.39C130.6 45.71 130.67 45.78 130.67 46V52.35ZM151.06 45.71C151.28 45.71 151.35 45.78 151.35 46V55.48C151.35 55.7 151.28 55.77 151.06 55.77H150.64C150.43 55.77 150.36 55.7 150.36 55.48V49.71C150.36 48.8705 150.417 48.0319 150.53 47.2H150.47C150.158 47.9607 149.793 48.6991 149.38 49.41L147.23 53.2C147.204 53.2658 147.158 53.322 147.099 53.3613C147.04 53.4005 146.971 53.421 146.9 53.42H146.62C146.548 53.4204 146.478 53.3997 146.417 53.3607C146.357 53.3216 146.309 53.2658 146.28 53.2L144.1 49.37C143.713 48.6693 143.379 47.9406 143.1 47.19H143.04C143.142 48.0295 143.196 48.8743 143.2 49.72V55.48C143.2 55.7 143.13 55.77 142.91 55.77H142.52C142.3 55.77 142.23 55.7 142.23 55.48V46C142.23 45.78 142.3 45.71 142.52 45.71H142.88C142.962 45.7023 143.045 45.7203 143.116 45.7615C143.188 45.8027 143.245 45.8651 143.28 45.94L146.78 52.16L150.26 46C150.37 45.79 150.43 45.76 150.65 45.76L151.06 45.71ZM36.72 53.55V60.78C36.72 61.0572 36.6099 61.323 36.4139 61.5189C36.2179 61.7149 35.9521 61.825 35.675 61.825C35.3978 61.825 35.132 61.7149 34.9361 61.5189C34.7401 61.323 34.63 61.0572 34.63 60.78V53.56C34.921 53.7725 35.2698 53.8911 35.63 53.9C36.0226 53.9112 36.4073 53.7877 36.72 53.55ZM45.62 51.46C45.3548 51.46 45.1004 51.5654 44.9129 51.7529C44.7253 51.9404 44.62 52.1948 44.62 52.46V53.72C44.62 53.9972 44.7301 54.263 44.9261 54.4589C45.122 54.6549 45.3878 54.765 45.665 54.765C45.9421 54.765 46.2079 54.6549 46.4039 54.4589C46.5999 54.263 46.71 53.9972 46.71 53.72V52.51C46.7178 52.3666 46.6946 52.2232 46.642 52.0896C46.5894 51.956 46.5086 51.8352 46.4052 51.7356C46.3018 51.636 46.1781 51.5598 46.0426 51.5123C45.9071 51.4647 45.763 51.4469 45.62 51.46ZM32.36 56.29C32.0002 56.2792 31.6518 56.1608 31.36 55.95V63.2C31.36 63.4785 31.4706 63.7456 31.6675 63.9425C31.8644 64.1394 32.1315 64.25 32.41 64.25C32.6885 64.25 32.9555 64.1394 33.1525 63.9425C33.3494 63.7456 33.46 63.4785 33.46 63.2V56C33.1334 56.2111 32.7482 56.3127 32.36 56.29ZM42.36 49.29C42.2245 49.2832 42.0891 49.3041 41.9619 49.3513C41.8348 49.3985 41.7186 49.4711 41.6203 49.5646C41.5221 49.6582 41.444 49.7707 41.3906 49.8954C41.3372 50.0201 41.3098 50.1544 41.31 50.29V55.86C41.31 56.1385 41.4206 56.4056 41.6175 56.6025C41.8144 56.7994 42.0815 56.91 42.36 56.91C42.6385 56.91 42.9055 56.7994 43.1025 56.6025C43.2994 56.4056 43.41 56.1385 43.41 55.86V50.36C43.418 50.2157 43.3946 50.0714 43.3414 49.937C43.2882 49.8026 43.2065 49.6813 43.102 49.5815C42.9974 49.4817 42.8725 49.4057 42.7358 49.3589C42.599 49.312 42.4538 49.2953 42.31 49.31L42.36 49.29ZM39.04 51.43C38.6633 51.4274 38.2967 51.3087 37.99 51.09V58.36C37.99 58.6385 38.1006 58.9056 38.2975 59.1025C38.4944 59.2994 38.7615 59.41 39.04 59.41C39.3185 59.41 39.5855 59.2994 39.7825 59.1025C39.9794 58.9056 40.09 58.6385 40.09 58.36V51.1C39.7727 51.3363 39.3855 51.4595 38.99 51.45L39.04 51.43ZM30.09 57V36.69C30.0874 36.4424 29.9872 36.2059 29.8112 36.0318C29.6352 35.8577 29.3976 35.76 29.15 35.76H28.93C28.6824 35.76 28.4448 35.8577 28.2688 36.0318C28.0928 36.2059 27.9926 36.4424 27.99 36.69V57C27.99 57.2493 28.089 57.4884 28.2653 57.6647C28.4416 57.841 28.6807 57.94 28.93 57.94H29.15C29.3993 57.94 29.6384 57.841 29.8147 57.6647C29.991 57.4884 30.09 57.2493 30.09 57ZM32.47 55.52H32.25C32.0007 55.52 31.7616 55.421 31.5853 55.2447C31.409 55.0684 31.31 54.8293 31.31 54.58V39.11C31.3126 38.8624 31.4128 38.6259 31.5888 38.4518C31.7648 38.2777 32.0024 38.18 32.25 38.18H32.47C32.7176 38.18 32.9552 38.2777 33.1312 38.4518C33.3072 38.6259 33.4074 38.8624 33.41 39.11V54.6C33.41 54.7235 33.3857 54.8457 33.3384 54.9597C33.2912 55.0738 33.222 55.1774 33.1347 55.2647C33.0474 55.352 32.9438 55.4212 32.8297 55.4685C32.7157 55.5157 32.5934 55.54 32.47 55.54V55.52ZM35.78 53.14H35.55C35.3033 53.14 35.0668 53.042 34.8924 52.8676C34.718 52.6932 34.62 52.4567 34.62 52.21V41.51C34.6187 41.387 34.6417 41.265 34.6879 41.151C34.734 41.0371 34.8023 40.9333 34.8888 40.8459C34.9753 40.7585 35.0783 40.6891 35.1918 40.6417C35.3053 40.5944 35.427 40.57 35.55 40.57H35.78C36.0276 40.5726 36.2641 40.6728 36.4382 40.8488C36.6123 41.0248 36.71 41.2624 36.71 41.51V52.21C36.71 52.4567 36.612 52.6932 36.4376 52.8676C36.2632 53.042 36.0266 53.14 35.78 53.14ZM39.09 50.69H38.88C38.6324 50.69 38.3948 50.5924 38.2188 50.4182C38.0428 50.2441 37.9426 50.0076 37.94 49.76V44C37.9318 43.8716 37.95 43.7429 37.9936 43.6218C38.0371 43.5008 38.105 43.3899 38.1932 43.2962C38.2813 43.2025 38.3877 43.1278 38.5059 43.0768C38.624 43.0259 38.7513 42.9997 38.88 43H39.1C39.3493 43 39.5884 43.099 39.7647 43.2753C39.941 43.4516 40.04 43.6907 40.04 43.94V49.74C40.0413 49.8643 40.018 49.9876 39.9713 50.1028C39.9247 50.218 39.8556 50.3228 39.7682 50.4112C39.6808 50.4995 39.5767 50.5697 39.462 50.6175C39.3473 50.6654 39.2243 50.69 39.1 50.69H39.09ZM42.41 48.54H42.19C41.9407 48.54 41.7016 48.441 41.5253 48.2647C41.349 48.0884 41.25 47.8493 41.25 47.6V46.11C41.2526 45.8624 41.3528 45.6259 41.5288 45.4518C41.7048 45.2777 41.9424 45.18 42.19 45.18H42.41C42.6576 45.18 42.8952 45.2777 43.0712 45.4518C43.2472 45.6259 43.3474 45.8624 43.35 46.11V47.6C43.35 47.8476 43.2523 48.0852 43.0782 48.2612C42.9041 48.4372 42.6676 48.5374 42.42 48.54H42.41Z" fill="#394149" style="fill:#394149;fill:color(display-p3 0.2235 0.2549 0.2863);fill-opacity:1;"/>
</g>
</svg>
