<svg width="180" height="100" viewBox="0 0 180 100" fill="none" xmlns="http://www.w3.org/2000/svg">
<g id="Layer_1">
<path id="Vector" d="M56.4934 42.25H59.5128V56.7H56.4934V42.25Z" fill="#394149" style="fill:#394149;fill:color(display-p3 0.2235 0.2549 0.2863);fill-opacity:1;"/>
<path id="Vector_2" d="M61.2036 51.7499C61.2036 50.7103 61.5143 49.6941 62.0962 48.8301C62.6782 47.9661 63.5052 47.2932 64.4725 46.8967C65.4397 46.5003 66.5037 46.3981 67.5295 46.6031C68.5553 46.8081 69.4967 47.3111 70.2344 48.0483C70.9722 48.7856 71.473 49.7238 71.6735 50.7442C71.8739 51.7646 71.765 52.8211 71.3604 53.7799C70.9559 54.7387 70.2739 55.5565 69.401 56.1298C68.5281 56.703 67.5036 57.0059 66.4573 56.9999C65.7633 57.0053 65.0752 56.873 64.4334 56.6107C63.7915 56.3484 63.2089 55.9614 62.7196 55.4724C62.2302 54.9834 61.8441 54.4023 61.5838 53.763C61.3235 53.1238 61.1942 52.4394 61.2036 51.7499ZM68.7721 51.7499C68.7602 51.3017 68.6156 50.8669 68.3564 50.5C68.0971 50.133 67.7347 49.8501 67.3145 49.6867C66.8943 49.5233 66.4349 49.4867 65.9939 49.5813C65.5528 49.6759 65.1496 49.8977 64.8347 50.2188C64.5198 50.5399 64.3071 50.9462 64.2234 51.3867C64.1396 51.8273 64.1884 52.2826 64.3638 52.6957C64.5391 53.1089 64.8331 53.4615 65.209 53.7094C65.585 53.9574 66.0262 54.0898 66.4774 54.0899C66.7846 54.0959 67.0898 54.0388 67.3738 53.9222C67.6579 53.8057 67.9146 53.6322 68.1281 53.4126C68.3416 53.193 68.5072 52.932 68.6145 52.6459C68.7219 52.3598 68.7687 52.0548 68.752 51.7499H68.7721Z" fill="#394149" style="fill:#394149;fill:color(display-p3 0.2235 0.2549 0.2863);fill-opacity:1;"/>
<path id="Vector_3" d="M83.6575 46.8001V56.2101C83.6575 59.5301 81.0408 60.9401 78.3938 60.9401C77.4602 61.0162 76.5237 60.8319 75.6897 60.4079C74.8558 59.9839 74.1575 59.337 73.6735 58.5401L76.2199 57.0801C76.4262 57.4935 76.7544 57.8345 77.1608 58.0578C77.5672 58.2812 78.0324 58.3761 78.4944 58.3301C78.7888 58.3661 79.0875 58.3371 79.3693 58.2451C79.651 58.153 79.9088 58.0003 80.1242 57.7977C80.3396 57.5951 80.5073 57.3478 80.6153 57.0733C80.7233 56.7989 80.7689 56.5041 80.7489 56.2101V55.3001C80.3975 55.7234 79.9517 56.0595 79.4468 56.2816C78.9419 56.5038 78.3918 56.606 77.8402 56.5801C76.5056 56.5801 75.2256 56.0533 74.2819 55.1156C73.3382 54.178 72.808 52.9062 72.808 51.5801C72.808 50.254 73.3382 48.9823 74.2819 48.0446C75.2256 47.1069 76.5056 46.5801 77.8402 46.5801C78.3918 46.5542 78.9419 46.6564 79.4468 46.8786C79.9517 47.1008 80.3975 47.4368 80.7489 47.8601V46.8601L83.6575 46.8001ZM80.7489 51.5501C80.769 51.0717 80.6446 50.5982 80.3916 50.1906C80.1387 49.783 79.7689 49.4599 79.3296 49.2628C78.8904 49.0657 78.4019 49.0037 77.9269 49.0847C77.4519 49.1657 77.0122 49.386 76.6642 49.7173C76.3163 50.0487 76.076 50.4758 75.9744 50.9439C75.8727 51.412 75.9143 51.8996 76.0938 52.3439C76.2733 52.7883 76.5825 53.1692 76.9816 53.4376C77.3807 53.7061 77.8515 53.8497 78.3334 53.8501C78.6479 53.8726 78.9636 53.8293 79.2602 53.7231C79.5568 53.6168 79.8277 53.4499 80.0553 53.2332C80.2829 53.0164 80.4623 52.7546 80.5817 52.4647C80.7012 52.1748 80.7582 51.8632 80.7489 51.5501Z" fill="#394149" style="fill:#394149;fill:color(display-p3 0.2235 0.2549 0.2863);fill-opacity:1;"/>
<path id="Vector_4" d="M85.3585 51.75C85.3585 50.7112 85.6687 49.6958 86.2497 48.8322C86.8307 47.9686 87.6566 47.2957 88.6227 46.8987C89.5887 46.5016 90.6517 46.3982 91.6769 46.6016C92.7022 46.805 93.6437 47.306 94.3822 48.0412C95.1208 48.7765 95.6232 49.7129 95.826 50.7319C96.0287 51.751 95.9226 52.8069 95.5212 53.766C95.1197 54.7252 94.4409 55.5444 93.5706 56.1201C92.7004 56.6957 91.6778 57.002 90.6323 57C89.937 57.0067 89.2474 56.8754 88.6038 56.6138C87.9603 56.3522 87.3758 55.9656 86.8846 55.4766C86.3934 54.9876 86.0054 54.4061 85.7433 53.7662C85.4813 53.1263 85.3504 52.4408 85.3585 51.75ZM92.927 51.75C92.9151 51.3014 92.7703 50.8662 92.5106 50.499C92.2509 50.1319 91.8879 49.849 91.4671 49.6859C91.0463 49.5228 90.5864 49.4867 90.1451 49.5822C89.7037 49.6776 89.3006 49.9004 88.9861 50.2225C88.6716 50.5446 88.4597 50.9518 88.3771 51.393C88.2945 51.8342 88.3448 52.2898 88.5216 52.7027C88.6985 53.1157 88.994 53.4676 89.3713 53.7144C89.7486 53.9611 90.1907 54.0918 90.6424 54.09C90.9496 54.0959 91.2548 54.0389 91.5388 53.9223C91.8228 53.8058 92.0796 53.6323 92.2931 53.4127C92.5065 53.193 92.6721 52.932 92.7795 52.646C92.8868 52.3599 92.9336 52.0549 92.917 51.75H92.927Z" fill="#394149" style="fill:#394149;fill:color(display-p3 0.2235 0.2549 0.2863);fill-opacity:1;"/>
<path id="Vector_5" d="M97.3051 44.1501C97.3051 43.7981 97.4101 43.4539 97.607 43.1612C97.8038 42.8685 98.0836 42.6403 98.411 42.5056C98.7383 42.3709 99.0985 42.3356 99.446 42.4043C99.7936 42.473 100.113 42.6425 100.363 42.8915C100.614 43.1404 100.784 43.4576 100.854 43.8029C100.923 44.1481 100.887 44.506 100.752 44.8313C100.616 45.1565 100.386 45.4345 100.092 45.6301C99.7972 45.8257 99.4509 45.9301 99.0965 45.9301C98.623 45.9249 98.1704 45.7357 97.8355 45.403C97.5007 45.0703 97.3103 44.6206 97.3051 44.1501ZM97.5969 46.8001H100.616V56.7001H97.5969V46.8001Z" fill="#394149" style="fill:#394149;fill:color(display-p3 0.2235 0.2549 0.2863);fill-opacity:1;"/>
<path id="Vector_6" d="M113.539 51.7501C113.573 52.4085 113.475 53.0671 113.252 53.6879C113.029 54.3087 112.684 54.8795 112.238 55.3674C111.792 55.8553 111.253 56.2508 110.652 56.531C110.052 56.8112 109.401 56.9706 108.738 57.0001C108.176 57.0373 107.612 56.9478 107.089 56.7383C106.567 56.5287 106.098 56.2046 105.719 55.7901V60.6801H102.7V46.8001H105.719V47.7301C106.099 47.3168 106.567 46.9942 107.09 46.7863C107.613 46.5785 108.177 46.4909 108.738 46.5301C109.399 46.5596 110.046 46.7181 110.645 46.9964C111.244 47.2747 111.781 47.6675 112.227 48.1522C112.673 48.6369 113.018 49.2041 113.243 49.8215C113.468 50.4388 113.569 51.0941 113.539 51.7501ZM110.52 51.7501C110.508 51.2856 110.358 50.835 110.09 50.4547C109.821 50.0743 109.446 49.7812 109.01 49.6121C108.575 49.4429 108.099 49.4053 107.642 49.5038C107.185 49.6023 106.767 49.8327 106.441 50.166C106.116 50.4993 105.896 50.9207 105.81 51.3775C105.725 51.8342 105.777 52.3059 105.959 52.7335C106.142 53.161 106.448 53.5254 106.839 53.781C107.229 54.0366 107.687 54.1719 108.155 54.1701C108.475 54.1836 108.794 54.1297 109.092 54.0119C109.39 53.8941 109.66 53.7151 109.883 53.4866C110.106 53.2581 110.278 52.9852 110.388 52.686C110.498 52.3867 110.543 52.0678 110.52 51.7501Z" fill="#394149" style="fill:#394149;fill:color(display-p3 0.2235 0.2549 0.2863);fill-opacity:1;"/>
<path id="Vector_7" d="M122.728 53.73C122.728 56.01 120.715 56.98 118.581 56.98C117.711 57.0578 116.837 56.8745 116.073 56.4538C115.309 56.0331 114.689 55.3943 114.294 54.62L116.891 53.16C116.993 53.5168 117.217 53.8277 117.522 54.0407C117.828 54.2537 118.199 54.3558 118.571 54.33C119.286 54.33 119.648 54.11 119.648 53.71C119.648 52.62 114.747 53.2 114.747 49.77C114.747 47.61 116.579 46.53 118.652 46.53C119.44 46.4949 120.223 46.6726 120.918 47.0441C121.612 47.4156 122.193 47.9671 122.597 48.64L120.001 50C119.886 49.742 119.698 49.5225 119.461 49.3682C119.223 49.2138 118.946 49.131 118.662 49.13C118.139 49.13 117.827 49.33 117.827 49.68C117.827 50.82 122.728 50.07 122.728 53.73Z" fill="#394149" style="fill:#394149;fill:color(display-p3 0.2235 0.2549 0.2863);fill-opacity:1;"/>
<path id="Vector_8" d="M133.668 46.8V56.7H130.649V55.77C130.306 56.1817 129.87 56.5075 129.377 56.7212C128.884 56.9348 128.348 57.0303 127.811 57C125.798 57 124.077 55.5701 124.077 52.9001V46.8H127.096V52.45C127.072 52.6863 127.1 52.9248 127.179 53.1491C127.257 53.3735 127.383 53.5783 127.548 53.7494C127.714 53.9206 127.915 54.054 128.137 54.1404C128.36 54.2268 128.599 54.2643 128.837 54.25C129.924 54.25 130.689 53.61 130.689 52.25V46.8H133.668Z" fill="#394149" style="fill:#394149;fill:color(display-p3 0.2235 0.2549 0.2863);fill-opacity:1;"/>
<path id="Vector_9" d="M150.778 50.62V56.7H147.759V50.88C147.759 49.88 147.285 49.26 146.329 49.26C145.373 49.26 144.769 49.95 144.769 51.12V56.7H141.75V50.88C141.75 49.88 141.277 49.26 140.321 49.26C139.365 49.26 138.761 49.95 138.761 51.12V56.7H135.741V46.8H138.761V47.71C139.073 47.3079 139.482 46.9895 139.949 46.7835C140.417 46.5775 140.928 46.4904 141.438 46.53C141.949 46.5035 142.457 46.6094 142.914 46.8373C143.371 47.0652 143.761 47.4073 144.045 47.83C144.376 47.3884 144.815 47.0376 145.32 46.8102C145.826 46.5829 146.38 46.4865 146.933 46.53C149.288 46.53 150.778 48.15 150.778 50.62Z" fill="#394149" style="fill:#394149;fill:color(display-p3 0.2235 0.2549 0.2863);fill-opacity:1;"/>
<path id="Vector_10" d="M38.5081 39.6499V35.3999H25.0216V64.5999H38.5081V60.3499C35.7454 60.3499 33.0958 59.2595 31.1423 57.3185C29.1888 55.3775 28.0913 52.7449 28.0913 49.9999C28.0913 47.2549 29.1888 44.6223 31.1423 42.6813C33.0958 40.7403 35.7454 39.6499 38.5081 39.6499Z" fill="#394149" style="fill:#394149;fill:color(display-p3 0.2235 0.2549 0.2863);fill-opacity:1;"/>
<path id="Vector_11" d="M38.5081 39.6499V60.3499C41.2708 60.3499 43.9203 59.2595 45.8738 57.3185C47.8274 55.3775 48.9248 52.7449 48.9248 49.9999C48.9248 47.2549 47.8274 44.6223 45.8738 42.6813C43.9203 40.7403 41.2708 39.6499 38.5081 39.6499Z" fill="#394149" style="fill:#394149;fill:color(display-p3 0.2235 0.2549 0.2863);fill-opacity:1;"/>
<path id="Vector_12" d="M153.314 46.7401C154.537 46.7401 155.528 45.7551 155.528 44.5401C155.528 43.3251 154.537 42.3401 153.314 42.3401C152.091 42.3401 151.1 43.3251 151.1 44.5401C151.1 45.7551 152.091 46.7401 153.314 46.7401Z" fill="#394149" style="fill:#394149;fill:color(display-p3 0.2235 0.2549 0.2863);fill-opacity:1;"/>
</g>
</svg>
