<svg width="178" height="100" viewBox="0 0 178 100" fill="none" xmlns="http://www.w3.org/2000/svg">
<g id="logoipsum">
<path id="Vector" d="M67.88 57.3901C67.2852 57.4223 66.6969 57.2532 66.21 56.9101C66.0065 56.7592 65.8428 56.5612 65.7331 56.3329C65.6233 56.1047 65.5708 55.8532 65.58 55.6001V46.3301C65.5751 46.2908 65.5793 46.251 65.5921 46.2136C65.605 46.1762 65.6262 46.1422 65.6542 46.1142C65.6821 46.0863 65.7161 46.0651 65.7535 46.0522C65.7909 46.0393 65.8307 46.0352 65.87 46.0401H67.55C67.74 46.0401 67.83 46.1401 67.83 46.3301V54.8801C67.83 55.2601 68 55.4501 68.35 55.4501C68.4983 55.4562 68.6468 55.4393 68.79 55.4001C68.99 55.4001 69.1 55.4601 69.11 55.6401L69.26 56.8901C69.2672 56.9265 69.2665 56.9641 69.258 57.0002C69.2494 57.0364 69.2332 57.0703 69.2105 57.0997C69.1878 57.129 69.159 57.1532 69.1261 57.1705C69.0933 57.1878 69.0571 57.1979 69.02 57.2001C68.652 57.3216 68.2675 57.3857 67.88 57.3901Z" fill="#394149" style="fill:#394149;fill:color(display-p3 0.2235 0.2549 0.2863);fill-opacity:1;"/>
<path id="Vector_2" d="M77.33 56.32C76.4858 57.0175 75.425 57.3991 74.33 57.3991C73.2349 57.3991 72.1741 57.0175 71.33 56.32C70.588 55.571 70.1718 54.5594 70.1718 53.505C70.1718 52.4507 70.588 51.4391 71.33 50.69C72.1758 49.9962 73.236 49.6169 74.33 49.6169C75.424 49.6169 76.4842 49.9962 77.33 50.69C78.0548 51.446 78.4595 52.4528 78.4595 53.5C78.4595 54.5473 78.0548 55.5541 77.33 56.31V56.32ZM72.91 55C73.3017 55.3549 73.8114 55.5514 74.34 55.5514C74.8685 55.5514 75.3782 55.3549 75.77 55C76.1245 54.5924 76.3198 54.0703 76.3198 53.53C76.3198 52.9898 76.1245 52.4677 75.77 52.06C75.3782 51.7052 74.8685 51.5087 74.34 51.5087C73.8114 51.5087 73.3017 51.7052 72.91 52.06C72.5554 52.4677 72.3601 52.9898 72.3601 53.53C72.3601 54.0703 72.5554 54.5924 72.91 55Z" fill="#394149" style="fill:#394149;fill:color(display-p3 0.2235 0.2549 0.2863);fill-opacity:1;"/>
<path id="Vector_3" d="M87.71 49.8699C87.9 49.8699 87.99 49.9699 87.99 50.1599V57.3299C88.0075 57.8139 87.9169 58.2956 87.7249 58.7402C87.5329 59.1847 87.2443 59.5809 86.88 59.8999C86.0714 60.5894 85.0316 60.9467 83.97 60.8999C83.0111 60.9336 82.0651 60.6718 81.26 60.1499C80.9162 59.9242 80.6225 59.6301 80.3971 59.2861C80.1718 58.942 80.0196 58.5553 79.95 58.1499C79.95 57.9499 79.95 57.8599 80.22 57.8599H81.9C81.9713 57.8624 82.0404 57.8854 82.099 57.9262C82.1575 57.967 82.203 58.0239 82.23 58.0899C82.3389 58.3937 82.5561 58.6465 82.84 58.7999C83.1859 58.9784 83.5708 59.0678 83.96 59.0599C84.1948 59.0728 84.4298 59.0387 84.6513 58.9598C84.8728 58.8808 85.0763 58.7585 85.25 58.5999C85.4086 58.4341 85.5321 58.2378 85.6129 58.023C85.6936 57.8082 85.7301 57.5792 85.72 57.3499V56.7199C85.1185 57.1624 84.3864 57.3911 83.64 57.3699C83.1176 57.3889 82.5967 57.3022 82.1087 57.1149C81.6207 56.9276 81.1755 56.6436 80.8 56.2799C80.079 55.5341 79.676 54.5373 79.676 53.4999C79.676 52.4626 80.079 51.4658 80.8 50.7199C81.1773 50.3595 81.623 50.0783 82.1108 49.8928C82.5985 49.7073 83.1185 49.6213 83.64 49.6399C84.408 49.6197 85.1597 49.8632 85.77 50.3299V50.1699C85.7654 50.1316 85.7694 50.0927 85.7817 50.0562C85.794 50.0196 85.8143 49.9862 85.8411 49.9584C85.8679 49.9307 85.9006 49.9092 85.9367 49.8956C85.9728 49.8821 86.0115 49.8767 86.05 49.8799L87.71 49.8699ZM83.83 55.5899C84.0876 55.5979 84.3438 55.5492 84.5806 55.4473C84.8173 55.3453 85.0288 55.1926 85.2 54.9999C85.5324 54.5706 85.7128 54.043 85.7128 53.4999C85.7128 52.9569 85.5324 52.4293 85.2 51.9999C85.0294 51.8099 84.8192 51.6595 84.5842 51.5593C84.3493 51.4591 84.0953 51.4115 83.84 51.4199C83.5794 51.4117 83.3201 51.4603 83.0801 51.5621C82.8401 51.664 82.6251 51.8168 82.45 52.0099C82.0817 52.4206 81.888 52.9587 81.91 53.5099C81.8919 54.0557 82.0813 54.5881 82.44 54.9999C82.6155 55.1926 82.8306 55.345 83.0705 55.4468C83.3104 55.5486 83.5695 55.5975 83.83 55.5899Z" fill="#394149" style="fill:#394149;fill:color(display-p3 0.2235 0.2549 0.2863);fill-opacity:1;"/>
<path id="Vector_4" d="M96.62 56.32C95.7742 57.0139 94.714 57.3932 93.62 57.3932C92.526 57.3932 91.4658 57.0139 90.62 56.32C89.8945 55.5625 89.4895 54.554 89.4895 53.5051C89.4895 52.4561 89.8945 51.4476 90.62 50.69C91.4666 49.998 92.5265 49.6199 93.62 49.6199C94.7135 49.6199 95.7734 49.998 96.62 50.69C97.3449 51.446 97.7496 52.4528 97.7496 53.5C97.7496 54.5473 97.3449 55.5541 96.62 56.3101V56.32ZM92.19 55C92.3817 55.1824 92.6077 55.3249 92.8549 55.4194C93.1021 55.5138 93.3655 55.5582 93.63 55.55C93.8928 55.5569 94.1544 55.5118 94.3998 55.4174C94.6451 55.323 94.8695 55.1812 95.06 55C95.4088 54.5897 95.6003 54.0686 95.6003 53.53C95.6003 52.9915 95.4088 52.4704 95.06 52.0601C94.8695 51.8789 94.6451 51.7371 94.3998 51.6427C94.1544 51.5483 93.8928 51.5032 93.63 51.51C93.3655 51.5019 93.1021 51.5463 92.8549 51.6407C92.6077 51.7352 92.3817 51.8777 92.19 52.0601C91.8412 52.4704 91.6497 52.9915 91.6497 53.53C91.6497 54.0686 91.8412 54.5897 92.19 55Z" fill="#394149" style="fill:#394149;fill:color(display-p3 0.2235 0.2549 0.2863);fill-opacity:1;"/>
<path id="Vector_5" d="M101.36 48.1699C101.096 48.4013 100.756 48.5288 100.405 48.5288C100.054 48.5288 99.7143 48.4013 99.45 48.1699C99.3301 48.0568 99.2346 47.9204 99.1694 47.7691C99.1041 47.6177 99.0704 47.4547 99.0704 47.2899C99.0704 47.1251 99.1041 46.962 99.1694 46.8107C99.2346 46.6594 99.3301 46.523 99.45 46.4099C99.717 46.1843 100.055 46.0605 100.405 46.0605C100.755 46.0605 101.093 46.1843 101.36 46.4099C101.48 46.523 101.575 46.6594 101.641 46.8107C101.706 46.962 101.739 47.1251 101.739 47.2899C101.739 47.4547 101.706 47.6177 101.641 47.7691C101.575 47.9204 101.48 48.0568 101.36 48.1699ZM101.57 57.3899C100.976 57.419 100.388 57.2502 99.9 56.9099C99.6996 56.7568 99.5388 56.5581 99.4309 56.3302C99.323 56.1023 99.2713 55.8519 99.28 55.5999V50.1599C99.2751 50.1206 99.2792 50.0808 99.2921 50.0434C99.305 50.006 99.3262 49.972 99.3541 49.9441C99.3821 49.9161 99.4161 49.8949 99.4535 49.882C99.4909 49.8692 99.5307 49.865 99.57 49.8699H101.25C101.44 49.8699 101.53 49.9699 101.53 50.1599V54.8799C101.53 55.2599 101.7 55.4499 102.04 55.4499C102.192 55.4553 102.343 55.4385 102.49 55.3999C102.69 55.3999 102.8 55.4599 102.81 55.6399L102.96 56.8899C102.967 56.9263 102.966 56.9639 102.958 57.0001C102.949 57.0362 102.933 57.0701 102.91 57.0995C102.888 57.1289 102.859 57.153 102.826 57.1703C102.793 57.1877 102.757 57.1977 102.72 57.1999C102.349 57.3221 101.961 57.3862 101.57 57.3899Z" fill="#394149" style="fill:#394149;fill:color(display-p3 0.2235 0.2549 0.2863);fill-opacity:1;"/>
<path id="Vector_6" d="M109.14 49.63C109.665 49.6093 110.188 49.6942 110.68 49.8797C111.171 50.0652 111.62 50.3476 112 50.71C112.707 51.4689 113.1 52.4677 113.1 53.505C113.1 54.5423 112.707 55.5411 112 56.3C111.622 56.6656 111.173 56.9508 110.682 57.1381C110.19 57.3255 109.666 57.4112 109.14 57.39C108.391 57.4067 107.657 57.1784 107.05 56.74V60.35C107.05 60.54 106.95 60.63 106.76 60.63H105.08C105.042 60.6372 105.002 60.6349 104.965 60.6233C104.928 60.6118 104.894 60.5914 104.866 60.5638C104.839 60.5362 104.818 60.5023 104.807 60.4651C104.795 60.4278 104.793 60.3883 104.8 60.35V52.15C104.812 52.0698 104.805 51.988 104.779 51.911C104.754 51.8341 104.711 51.7641 104.653 51.7068C104.596 51.6495 104.526 51.6064 104.449 51.5809C104.372 51.5554 104.29 51.5482 104.21 51.56H103.88C103.66 51.56 103.55 51.48 103.55 51.32V50.14C103.545 50.067 103.565 49.9944 103.607 49.9344C103.649 49.8743 103.71 49.8304 103.78 49.81C104.126 49.6843 104.492 49.6233 104.86 49.63C105.227 49.5975 105.595 49.6753 105.918 49.8535C106.24 50.0317 106.502 50.302 106.67 50.63C106.992 50.3042 107.377 50.0474 107.802 49.8755C108.227 49.7036 108.682 49.62 109.14 49.63ZM107.58 55C107.758 55.1864 107.973 55.3347 108.21 55.436C108.447 55.5373 108.702 55.5895 108.96 55.5895C109.218 55.5895 109.473 55.5373 109.71 55.436C109.947 55.3347 110.162 55.1864 110.34 55C110.716 54.5811 110.913 54.0322 110.89 53.47C110.916 52.9073 110.718 52.3572 110.34 51.94C110.162 51.7537 109.947 51.6054 109.71 51.504C109.473 51.4027 109.218 51.3505 108.96 51.3505C108.702 51.3505 108.447 51.4027 108.21 51.504C107.973 51.6054 107.758 51.7537 107.58 51.94C107.216 52.3646 107.027 52.9113 107.05 53.47C107.03 54.0283 107.219 54.5739 107.58 55Z" fill="#394149" style="fill:#394149;fill:color(display-p3 0.2235 0.2549 0.2863);fill-opacity:1;"/>
<path id="Vector_7" d="M117.82 57.3899C116.922 57.4268 116.032 57.212 115.25 56.7699C114.936 56.5809 114.669 56.3236 114.468 56.0172C114.267 55.7108 114.138 55.3631 114.09 54.9999C114.09 54.7999 114.16 54.6999 114.38 54.6999H115.85C115.92 54.7026 115.988 54.7246 116.046 54.7634C116.104 54.8022 116.151 54.8564 116.18 54.9199C116.39 55.4599 116.94 55.7299 117.82 55.7299C118.127 55.7439 118.433 55.6821 118.71 55.5499C118.806 55.5067 118.888 55.4382 118.948 55.3519C119.008 55.2656 119.043 55.1647 119.05 55.0599C119.05 54.7999 118.89 54.6199 118.57 54.4999C118.19 54.3736 117.798 54.2897 117.4 54.2499C116.928 54.1965 116.461 54.113 116 53.9999C115.552 53.8984 115.144 53.6651 114.83 53.3299C114.645 53.1021 114.509 52.8386 114.43 52.5559C114.351 52.2731 114.331 51.9772 114.371 51.6864C114.412 51.3957 114.511 51.1163 114.664 50.8657C114.817 50.6152 115.02 50.3987 115.26 50.2299C115.981 49.7707 116.826 49.5471 117.68 49.5899C118.506 49.5619 119.324 49.7664 120.04 50.1799C120.329 50.3433 120.577 50.5691 120.767 50.8407C120.958 51.1123 121.085 51.4229 121.14 51.7499C121.14 51.9499 121.05 52.0499 120.87 52.0499H119.39C119.328 52.0536 119.266 52.0384 119.212 52.0063C119.159 51.9741 119.116 51.9266 119.09 51.8699C118.991 51.633 118.805 51.4433 118.57 51.3399C118.305 51.2012 118.009 51.1324 117.71 51.1399C117.417 51.1239 117.124 51.1824 116.86 51.3099C116.767 51.3458 116.687 51.4089 116.629 51.4909C116.572 51.5728 116.541 51.67 116.54 51.7699C116.546 51.9066 116.596 52.0377 116.683 52.1439C116.769 52.2501 116.887 52.3258 117.02 52.3599C117.404 52.5046 117.803 52.6053 118.21 52.6599C118.678 52.7214 119.142 52.8082 119.6 52.9199C120.048 53.0213 120.456 53.2547 120.77 53.5899C120.938 53.7746 121.068 53.9907 121.152 54.2259C121.236 54.461 121.273 54.7105 121.26 54.9599C121.269 55.3056 121.187 55.6476 121.024 55.9525C120.861 56.2575 120.622 56.515 120.33 56.6999C119.583 57.1795 118.707 57.4202 117.82 57.3899Z" fill="#394149" style="fill:#394149;fill:color(display-p3 0.2235 0.2549 0.2863);fill-opacity:1;"/>
<path id="Vector_8" d="M131.83 56.8901C131.836 56.9256 131.834 56.9619 131.826 56.9968C131.817 57.0318 131.802 57.0646 131.78 57.0935C131.759 57.1224 131.732 57.1467 131.701 57.165C131.67 57.1833 131.636 57.1952 131.6 57.2001C131.235 57.3193 130.854 57.3834 130.47 57.3901C130.09 57.4295 129.706 57.3701 129.356 57.2177C129.005 57.0652 128.7 56.825 128.47 56.5201C127.764 57.1274 126.85 57.439 125.92 57.3901C125.488 57.41 125.057 57.3393 124.654 57.1826C124.251 57.0259 123.885 56.7866 123.58 56.4801C123.277 56.159 123.042 55.78 122.889 55.3659C122.736 54.9518 122.669 54.511 122.69 54.0701V50.1601C122.69 49.9701 122.78 49.8701 122.97 49.8701H124.65C124.84 49.8701 124.93 49.9701 124.93 50.1601V53.7701C124.912 54.2199 125.066 54.6597 125.36 55.0001C125.507 55.1561 125.686 55.2787 125.884 55.3598C126.082 55.4408 126.296 55.4785 126.51 55.4701C126.729 55.4797 126.948 55.4458 127.154 55.3702C127.36 55.2947 127.549 55.1791 127.71 55.0301C127.862 54.8731 127.981 54.6865 128.058 54.4818C128.136 54.2771 128.17 54.0587 128.16 53.8401V50.1601C128.16 49.9701 128.25 49.8701 128.44 49.8701H130.14C130.33 49.8701 130.42 49.9701 130.42 50.1601V54.8701C130.42 55.2601 130.59 55.4501 130.92 55.4501C131.075 55.4561 131.23 55.4393 131.38 55.4001C131.418 55.3895 131.458 55.3876 131.496 55.3946C131.535 55.4015 131.571 55.4171 131.603 55.4402C131.635 55.4633 131.661 55.4933 131.68 55.5279C131.698 55.5625 131.708 55.6009 131.71 55.6401L131.83 56.8901Z" fill="#394149" style="fill:#394149;fill:color(display-p3 0.2235 0.2549 0.2863);fill-opacity:1;"/>
<path id="Vector_9" d="M147.72 56.8899C147.729 56.9257 147.73 56.963 147.723 56.9992C147.715 57.0354 147.7 57.0695 147.678 57.0992C147.656 57.1288 147.628 57.1532 147.595 57.1706C147.563 57.188 147.527 57.198 147.49 57.1999C147.118 57.3208 146.731 57.3848 146.34 57.3899C145.745 57.4206 145.158 57.2516 144.67 56.9099C144.459 56.7635 144.288 56.5673 144.171 56.3388C144.054 56.1103 143.995 55.8565 144 55.5999V53.2499C144.021 52.8015 143.871 52.3618 143.58 52.0199C143.44 51.8636 143.266 51.7404 143.073 51.6591C142.879 51.5778 142.67 51.5405 142.46 51.5499C142.271 51.5427 142.083 51.5786 141.909 51.6548C141.736 51.7311 141.583 51.8456 141.46 51.9899C141.196 52.325 141.061 52.7437 141.08 53.1699V56.8599C141.08 57.0499 140.99 57.1499 140.8 57.1499H139.11C139.071 57.1547 139.031 57.1506 138.994 57.1377C138.956 57.1249 138.922 57.1037 138.894 57.0757C138.866 57.0477 138.845 57.0138 138.832 56.9764C138.819 56.939 138.815 56.8991 138.82 56.8599V53.2499C138.842 52.8064 138.703 52.3698 138.43 52.0199C138.308 51.8729 138.155 51.7546 137.982 51.6734C137.81 51.5921 137.621 51.55 137.43 51.5499C137.226 51.5416 137.023 51.5766 136.833 51.6524C136.643 51.7282 136.472 51.8432 136.33 51.9899C136.044 52.3143 135.897 52.738 135.92 53.1699V56.8599C135.925 56.8991 135.921 56.939 135.908 56.9764C135.895 57.0138 135.874 57.0477 135.846 57.0757C135.818 57.1037 135.784 57.1249 135.747 57.1377C135.709 57.1506 135.669 57.1547 135.63 57.1499H134C133.81 57.1499 133.72 57.0499 133.72 56.8599V52.1499C133.732 52.0697 133.725 51.9878 133.699 51.9109C133.674 51.8339 133.631 51.764 133.573 51.7067C133.516 51.6494 133.446 51.6062 133.369 51.5807C133.292 51.5553 133.21 51.5481 133.13 51.5599H132.8C132.58 51.5599 132.47 51.4799 132.47 51.3199V50.1399C132.465 50.0669 132.485 49.9943 132.527 49.9342C132.569 49.8742 132.63 49.8303 132.7 49.8099C133.046 49.6841 133.412 49.6231 133.78 49.6299C134.133 49.5998 134.488 49.6702 134.803 49.833C135.118 49.9958 135.38 50.2443 135.56 50.5499C135.897 50.2301 136.297 49.9834 136.734 49.8251C137.171 49.6668 137.636 49.6003 138.1 49.6299C138.551 49.6079 139 49.6924 139.412 49.8766C139.824 50.0607 140.186 50.3394 140.47 50.6899C140.801 50.3302 141.208 50.0485 141.661 49.8652C142.114 49.6819 142.602 49.6015 143.09 49.6299C143.527 49.6095 143.963 49.6798 144.37 49.8364C144.778 49.993 145.149 50.2326 145.46 50.5399C145.764 50.8604 145.999 51.2392 146.152 51.6535C146.305 52.0678 146.373 52.5088 146.35 52.9499V54.8799C146.35 55.2599 146.52 55.4499 146.84 55.4499C146.995 55.4571 147.15 55.4402 147.3 55.3999C147.507 55.3999 147.617 55.4799 147.63 55.6399L147.72 56.8899Z" fill="#394149" style="fill:#394149;fill:color(display-p3 0.2235 0.2549 0.2863);fill-opacity:1;"/>
<path id="Vector_10" d="M30.46 48.57C31.1978 45.6047 32.9065 42.9714 35.314 41.0895C37.7214 39.2076 40.6893 38.1853 43.745 38.1853C46.8008 38.1853 49.7687 39.2076 52.1761 41.0895C54.5836 42.9714 56.2923 45.6047 57.03 48.57H55.8301C53.8057 48.5402 51.8229 49.1452 50.16 50.3C50.0641 50.3695 49.9639 50.433 49.8601 50.49H49.7201C49.6162 50.433 49.516 50.3695 49.42 50.3C47.7424 49.1719 45.7667 48.5694 43.745 48.5694C41.7234 48.5694 39.7477 49.1719 38.07 50.3C37.9741 50.3695 37.8739 50.433 37.7701 50.49H37.6301C37.5262 50.433 37.426 50.3695 37.3301 50.3C35.6672 49.1452 33.6844 48.5402 31.66 48.57H30.46ZM53.67 54.84C54.2861 54.3603 55.0495 54.1093 55.8301 54.13H57.44V50.92H55.8301C54.4553 50.9034 53.1119 51.3313 52 52.14C51.3744 52.6013 50.6174 52.8502 49.84 52.8502C49.0627 52.8502 48.3057 52.6013 47.68 52.14C46.54 51.3464 45.1842 50.921 43.795 50.921C42.4059 50.921 41.0501 51.3464 39.91 52.14C39.2844 52.6013 38.5274 52.8502 37.75 52.8502C36.9727 52.8502 36.2157 52.6013 35.59 52.14C34.4644 51.321 33.1018 50.8925 31.71 50.92H30.05V54.13H31.66C32.4406 54.1093 33.204 54.3603 33.82 54.84C34.9581 55.6342 36.3123 56.06 37.7001 56.06C39.0878 56.06 40.442 55.6342 41.5801 54.84C42.1968 54.3618 42.9598 54.111 43.7401 54.13C44.5208 54.1076 45.2848 54.3588 45.9001 54.84C47.0401 55.6337 48.3959 56.0591 49.785 56.0591C51.1742 56.0591 52.53 55.6337 53.67 54.84ZM53.67 60.58C54.2861 60.1003 55.0495 59.8493 55.8301 59.87H57.44V56.66H55.8301C54.4553 56.6434 53.1119 57.0713 52 57.88C51.3744 58.3413 50.6174 58.5902 49.84 58.5902C49.0627 58.5902 48.3057 58.3413 47.68 57.88C46.54 57.0864 45.1842 56.661 43.795 56.661C42.4059 56.661 41.0501 57.0864 39.91 57.88C39.2844 58.3413 38.5274 58.5902 37.75 58.5902C36.9727 58.5902 36.2157 58.3413 35.59 57.88C34.4644 57.061 33.1018 56.6325 31.71 56.66H30.05V59.87H31.66C32.4406 59.8493 33.204 60.1003 33.82 60.58C34.9581 61.3742 36.3123 61.8 37.7001 61.8C39.0878 61.8 40.442 61.3742 41.5801 60.58C42.1968 60.1018 42.9598 59.851 43.7401 59.87C44.5208 59.8476 45.2848 60.0988 45.9001 60.58C47.0401 61.3737 48.3959 61.7991 49.785 61.7991C51.1742 61.7991 52.53 61.3737 53.67 60.58Z" fill="#394149" style="fill:#394149;fill:color(display-p3 0.2235 0.2549 0.2863);fill-opacity:1;"/>
</g>
</svg>
