<svg width="8" height="16" viewBox="0 0 8 16" fill="none" xmlns="http://www.w3.org/2000/svg">
<path d="M1.73777 15.1763V8.29187H0.765469C0.470055 8.29187 0.230469 8.05228 0.230469 7.75687V5.57655C0.230469 5.28269 0.470831 5.04232 0.765469 5.04232H1.73777V3.28923C1.73777 1.63228 3.08148 0.288574 4.7392 0.288574H7.23432C7.52973 0.288574 7.76932 0.528161 7.76932 0.823575V3.00312C7.76932 3.29853 7.52973 3.53812 7.23432 3.53812H5.75726C5.589 3.53812 5.45021 3.67691 5.45021 3.84516V5.04387L7.20176 5.04232C7.49717 5.06326 7.73676 5.26175 7.73676 5.57655C7.68481 6.31469 7.6127 7.06137 7.54989 7.80106C7.52663 8.07709 7.2948 8.29109 7.01799 8.29109H5.45099V15.1755C5.45099 15.4694 5.2114 15.7098 4.91676 15.7098H2.27277C1.97814 15.7098 1.73777 15.4702 1.73777 15.1755V15.1763Z" fill="white" style="fill:white;fill-opacity:1;"/>
</svg>
