<svg width="18" height="18" viewBox="0 0 18 18" fill="none" xmlns="http://www.w3.org/2000/svg">
<path d="M15.3658 0.186035H2.63512C1.28366 0.187586 0.18885 1.2824 0.186523 2.63463V15.3653C0.188074 16.7168 1.28289 17.8116 2.63512 17.8139H15.3658C16.7173 17.8124 17.8121 16.7175 17.8144 15.3653V2.63463C17.8128 1.28317 16.718 0.188361 15.3658 0.186035Z" fill="white" style="fill:white;fill-opacity:1;"/>
<path d="M9.00091 4.10303C6.29644 4.10303 4.10449 6.29498 4.10449 8.99944C4.10449 11.7039 6.29644 13.8959 9.00091 13.8959C11.7054 13.8959 13.8973 11.7039 13.8973 8.99944C13.8942 6.29653 11.7038 4.10613 9.00091 4.10303ZM9.00091 12.9174C6.83765 12.9174 5.08377 11.1635 5.08377 9.00022C5.08377 6.83696 6.83765 5.08309 9.00091 5.08309C11.1642 5.08309 12.918 6.83696 12.918 9.00022C12.9157 11.1627 11.1634 12.915 9.00091 12.9174Z" fill="#203568" style="fill:#203568;fill:color(display-p3 0.1255 0.2078 0.4078);fill-opacity:1;"/>
<path d="M14.3863 2.14453C13.5753 2.14453 12.917 2.80204 12.917 3.61384C12.917 4.42565 13.5745 5.08316 14.3863 5.08316C15.1981 5.08316 15.8556 4.42565 15.8556 3.61384C15.8556 2.80204 15.1981 2.14453 14.3863 2.14453ZM14.3863 4.1031C14.1157 4.1031 13.8963 3.88367 13.8963 3.61307C13.8963 3.34247 14.1157 3.12304 14.3863 3.12304C14.6569 3.12304 14.8763 3.34247 14.8763 3.61307C14.8763 3.88367 14.6569 4.1031 14.3863 4.1031Z" fill="#203568" style="fill:#203568;fill:color(display-p3 0.1255 0.2078 0.4078);fill-opacity:1;"/>
</svg>
