<svg width="21" height="20" viewBox="0 0 21 20" fill="none" xmlns="http://www.w3.org/2000/svg">
<g id="icon/Line" clip-path="url(#clip0_796_1349)">
<path id="Vector" d="M20.5 0H0.5V20H20.5V0Z" fill="#203568" style="fill:#203568;fill:color(display-p3 0.1255 0.2078 0.4078);fill-opacity:1;"/>
<path id="Vector_2" d="M16.6456 8.63029C16.1126 4.46369 10.5363 2.88679 7.18913 4.78643C2.15654 7.63104 4.27619 13.6299 9.45997 14.3176L9.52927 14.3316C9.69258 14.3636 9.73668 14.4087 9.74831 14.4256C9.76915 14.4586 9.758 14.523 9.74976 14.5584C9.67853 14.8579 9.59081 15.1462 9.64848 15.4811C9.81761 16.3757 10.7582 15.9352 11.2336 15.6241C11.835 15.2708 12.4015 14.8724 12.828 14.5647C14.8444 13.1589 16.9723 11.4119 16.6461 8.63029H16.6456ZM8.16802 10.5164H7.1019C6.94101 10.5164 6.8155 10.3831 6.8155 10.2222V7.9848C6.8155 7.601 7.37182 7.60003 7.40671 7.9848V9.92466H8.16802C8.55183 9.92466 8.5528 10.5159 8.16802 10.5159V10.5164ZM9.28455 10.2145C9.28455 10.5987 8.69333 10.5997 8.69333 10.2145V7.97705C8.69333 7.59324 9.28455 7.59179 9.28455 7.97705V10.2145ZM11.9154 10.2145C11.9242 10.4883 11.5384 10.6138 11.3834 10.386L10.3284 8.93947V10.2149C10.3284 10.5987 9.77206 10.6002 9.77206 10.2149V8.04198C9.73716 7.76576 10.135 7.64316 10.293 7.87044L11.3373 9.31697V7.97753C11.3373 7.59373 11.9087 7.59227 11.9179 7.97753L11.9159 10.2149L11.9154 10.2145ZM14.0409 10.4471H12.5973C12.4364 10.4471 12.306 10.3235 12.306 10.1621C12.306 9.60434 12.306 8.48055 12.306 7.92326C12.306 7.76237 12.4364 7.62959 12.5973 7.62959H13.9958C14.3801 7.66448 14.3806 8.2208 13.9958 8.2208H12.9026V8.74272H13.7875C14.1718 8.77761 14.1722 9.33393 13.7875 9.33393H12.9026V9.89026H14.0409C14.4247 9.89026 14.4262 10.4466 14.0409 10.4466V10.4471Z" fill="white" style="fill:white;fill-opacity:1;"/>
</g>
<defs>
<clipPath id="clip0_796_1349">
<rect width="20" height="20" fill="white" style="fill:white;fill-opacity:1;" transform="translate(0.5)"/>
</clipPath>
</defs>
</svg>
