<svg width="14" height="22" viewBox="0 0 14 22" fill="none" xmlns="http://www.w3.org/2000/svg">
<path d="M12.935 19.6187C12.6448 19.8736 12.3122 20.0648 11.9575 20.2192C10.9561 20.6538 9.89637 20.8535 8.82128 20.9733C7.29543 21.143 5.77341 21.1031 4.25907 20.845C3.3414 20.6884 2.44447 20.4611 1.61973 20.0057C1.33099 19.846 1.06145 19.6617 0.85795 19.396C0.523904 18.959 0.550014 18.5029 0.92092 18.0936C1.33253 17.6397 1.87007 17.3955 2.42604 17.1859C2.99661 16.9701 3.58867 16.835 4.18765 16.7259C4.32357 16.7013 4.42033 16.729 4.49482 16.8473C4.55856 16.9486 4.62997 17.0454 4.69832 17.1437C4.8496 17.3641 4.84499 17.3794 4.57084 17.4324C3.96342 17.5491 3.37135 17.7127 2.83227 18.0268C2.76316 18.0675 2.69558 18.1105 2.63185 18.1573C2.12502 18.5328 2.12425 19.0281 2.63338 19.3983C3.23927 19.8391 3.94806 20.0088 4.66453 20.1485C5.43475 20.2991 6.2165 20.3551 7.23015 20.3543C8.25302 20.3305 9.49398 20.233 10.6758 19.773C10.9745 19.6571 11.2633 19.5173 11.4952 19.2862C11.8384 18.9444 11.8331 18.572 11.4698 18.2464C11.1919 17.9968 10.8563 17.8463 10.5084 17.7196C10.1314 17.5829 9.74356 17.4877 9.35038 17.4124C9.17837 17.3794 9.14842 17.3103 9.25823 17.1759C9.2636 17.1698 9.26744 17.1629 9.27205 17.1567C9.68212 16.6207 9.48169 16.6614 10.1552 16.7973C11.0529 16.9778 11.9268 17.2297 12.6962 17.7542C12.7692 17.8033 12.8375 17.8586 12.9059 17.9147C13.5133 18.41 13.5271 19.0996 12.935 19.6187Z" fill="#203568" style="fill:#203568;fill:color(display-p3 0.1255 0.2078 0.4078);fill-opacity:1;"/>
<path d="M9.58089 7.74499C9.5686 9.13416 8.40213 10.2876 7.01143 10.2868C5.5685 10.2868 4.44043 9.1595 4.44043 7.71888C4.44043 6.29977 5.5831 5.14635 6.98916 5.14405C8.40674 5.14174 9.59394 6.33279 9.58089 7.74499Z" fill="#203568" style="fill:#203568;fill:color(display-p3 0.1255 0.2078 0.4078);fill-opacity:1;"/>
<path d="M11.5726 2.72439C9.5138 0.833002 6.50739 0.368411 4.03239 1.63701C1.56122 2.90331 0.277256 4.96595 0.226573 7.75043C0.199696 9.24019 0.723417 10.5748 1.57581 11.7774C3.309 14.224 5.05679 16.6598 6.79997 19.0995C7.0004 19.3806 7.00193 19.379 7.19775 19.1041C8.93556 16.6706 10.678 14.2409 12.4081 11.802C13.2812 10.5718 13.7842 9.21024 13.7758 7.68439C13.7696 5.77764 12.994 4.02909 11.5741 2.72516L11.5726 2.72439ZM7.00731 11.8166C4.90244 11.8765 2.8951 10.144 2.88588 7.70896C2.87667 5.43899 4.72735 3.61518 7.00347 3.61518C9.27958 3.61518 11.1141 5.45204 11.1111 7.74198C11.108 9.99352 9.27114 11.8173 7.00731 11.8166Z" fill="#203568" style="fill:#203568;fill:color(display-p3 0.1255 0.2078 0.4078);fill-opacity:1;"/>
</svg>
