<svg width="18" height="18" viewBox="0 0 18 18" fill="none" xmlns="http://www.w3.org/2000/svg">
<path d="M17.3049 13.1955L14.5374 10.4379C13.9092 9.80816 12.8894 9.80662 12.2597 10.4348L12.2566 10.4379L10.6709 12.0236C10.5511 12.1442 10.3622 12.1603 10.2224 12.0628C9.35467 11.4561 8.54221 10.7742 7.79425 10.0239C7.12463 9.35585 6.50875 8.63631 5.95201 7.87146C5.85141 7.73401 5.866 7.54356 5.98657 7.423L7.61149 5.79808C8.23888 5.16915 8.23888 4.15166 7.61149 3.52273L4.8439 0.755148C4.20576 0.145419 3.20132 0.145419 2.56395 0.755148L1.68698 1.63211C0.363089 2.94142 -0.109182 4.88502 0.465222 6.65585C0.89449 7.95133 1.50115 9.18077 2.26753 10.3104C2.95789 11.3455 3.74962 12.3085 4.63119 13.1862C5.58955 14.1515 6.65159 15.0085 7.79809 15.7419C9.05825 16.5643 10.4413 17.1794 11.8957 17.5642C12.2697 17.6563 12.6529 17.7024 13.0384 17.7024C14.3584 17.6939 15.6209 17.1633 16.5501 16.2249L17.3034 15.4716C17.9308 14.8426 17.9308 13.8251 17.3034 13.1962L17.3049 13.1955Z" fill="#203568" style="fill:#203568;fill:color(display-p3 0.1255 0.2078 0.4078);fill-opacity:1;"/>
</svg>
