<svg width="16" height="18" viewBox="0 0 16 18" fill="none" xmlns="http://www.w3.org/2000/svg">
<path d="M10.9505 12.836V5.45918C10.9505 5.45918 11.7825 6.84553 14.7894 6.93082C14.9499 6.93547 15.0817 6.80366 15.0817 6.64316V4.55821C15.0817 4.40314 14.9576 4.27985 14.8025 4.27133C12.4703 4.13951 11.363 2.35075 11.2545 0.710859C11.2444 0.558888 11.1118 0.443359 10.9591 0.443359H8.58181C8.42364 0.443359 8.29493 0.572069 8.29493 0.730243V12.4576C8.29493 13.7315 7.32185 14.8395 6.0487 14.9C4.59412 14.969 3.41169 13.7207 3.59157 12.2452C3.71873 11.2031 4.55535 10.3494 5.59511 10.2052C5.80136 10.1765 6.00373 10.1742 6.19912 10.1959C6.37203 10.2153 6.52477 10.0865 6.52477 9.91287V7.82249C6.52477 7.67362 6.41157 7.54568 6.26348 7.5356C5.96496 7.51622 5.65947 7.5232 5.34932 7.55809C3.0558 7.81783 1.20423 9.67405 0.950689 11.9684C0.615732 14.9954 2.97594 17.5572 5.9355 17.5572C8.70587 17.5572 10.9521 15.3109 10.9521 12.5406" fill="white" style="fill:white;fill-opacity:1;"/>
</svg>
