<svg width="20" height="20" viewBox="0 0 20 20" fill="none" xmlns="http://www.w3.org/2000/svg">
<path d="M19.8332 7.80866C18.9803 1.14209 10.0582 -1.38094 4.7028 1.65848C-3.34934 6.20986 0.042094 15.8081 8.33615 16.9083L8.44703 16.9308C8.70833 16.982 8.77888 17.0541 8.79749 17.0812C8.83083 17.1339 8.813 17.2371 8.79982 17.2937C8.68584 17.7729 8.5455 18.2342 8.63777 18.77C8.90837 20.2013 10.4133 19.4965 11.174 18.9987C12.1362 18.4335 13.0426 17.7961 13.7249 17.3038C16.9512 15.0544 20.3558 12.2592 19.834 7.80866H19.8332ZM6.26903 10.8264H4.56323C4.30581 10.8264 4.105 10.6131 4.105 10.3557V6.77588C4.105 6.16179 4.99511 6.16024 5.05094 6.77588V9.87966H6.26903C6.88312 9.87966 6.88467 10.8256 6.26903 10.8256V10.8264ZM8.05547 10.3433C8.05547 10.9582 7.10953 10.9597 7.10953 10.3433V6.76347C7.10953 6.14938 8.05547 6.14706 8.05547 6.76347V10.3433ZM12.2649 10.3433C12.2789 10.7814 11.6617 10.9822 11.4136 10.6178L9.7256 8.30334V10.3441C9.7256 10.9582 8.83548 10.9605 8.83548 10.3441V6.86737C8.77966 6.42541 9.41623 6.22925 9.669 6.59289L11.3399 8.90735V6.76425C11.3399 6.15016 12.2541 6.14783 12.2688 6.76425L12.2657 10.3441L12.2649 10.3433ZM15.6657 10.7155H13.3559C13.0984 10.7155 12.8899 10.5178 12.8899 10.2596C12.8899 9.36714 12.8899 7.56907 12.8899 6.67741C12.8899 6.41999 13.0984 6.20754 13.3559 6.20754H15.5935C16.2084 6.26336 16.2092 7.15348 15.5935 7.15348H13.8443V7.98855H15.2601C15.875 8.04437 15.8758 8.93449 15.2601 8.93449H13.8443V9.8246H15.6657C16.2797 9.8246 16.2821 10.7147 15.6657 10.7147V10.7155Z" fill="white" style="fill:white;fill-opacity:1;"/>
</svg>
