<svg width="135" height="87" viewBox="0 0 135 87" fill="none" xmlns="http://www.w3.org/2000/svg">
<path id="gallery_thumbnail" d="M9.49481 86.0833C6.91634 86.0833 4.68953 85.1452 2.81437 83.269C0.938125 81.3938 0 79.167 0 76.5885V9.99481C0 7.41634 0.938125 5.18952 2.81437 3.31437C4.68953 1.43812 6.91634 0.5 9.49481 0.5H76.0885C78.667 0.5 80.8938 1.43812 82.769 3.31437C84.6452 5.18952 85.5833 7.41634 85.5833 9.99481V76.5885C85.5833 79.167 84.6452 81.3938 82.769 83.269C80.8938 85.1452 78.667 86.0833 76.0885 86.0833H9.49481ZM104.731 36.7083C103.014 36.7083 101.588 36.1405 100.453 35.0049C99.3178 33.8704 98.75 32.4445 98.75 30.7274V6.4826C98.75 4.76435 99.3178 3.33796 100.453 2.20343C101.588 1.06781 103.014 0.5 104.731 0.5H128.976C130.694 0.5 132.12 1.06781 133.255 2.20343C134.391 3.33796 134.958 4.76435 134.958 6.4826V30.7274C134.958 32.4445 134.391 33.8704 133.255 35.0049C132.12 36.1405 130.694 36.7083 128.976 36.7083H104.731ZM106.219 29.2395H127.488V7.97044H106.219V29.2395ZM9.49481 78.6129H76.0885C76.6788 78.6129 77.1638 78.4231 77.5434 78.0434C77.9242 77.6638 78.1145 77.1788 78.1145 76.5885V9.99481C78.1145 9.40451 77.9242 8.91953 77.5434 8.53989C77.1638 8.16025 76.6788 7.97044 76.0885 7.97044H9.49481C8.90451 7.97044 8.41953 8.16025 8.0399 8.53989C7.66026 8.91953 7.47044 9.40451 7.47044 9.99481V76.5885C7.47044 77.1788 7.66026 77.6638 8.0399 78.0434C8.41953 78.4231 8.90451 78.6129 9.49481 78.6129ZM17.092 62.7257H68.4914L51.8437 40.5069L39.5 56.9652L30.4479 44.9507L17.092 62.7257ZM104.731 86.0833C103.014 86.0833 101.588 85.5155 100.453 84.3799C99.3178 83.2454 98.75 81.819 98.75 80.1007V55.856C98.75 54.1388 99.3178 52.713 100.453 51.5784C101.588 50.4428 103.014 49.875 104.731 49.875H128.976C130.694 49.875 132.12 50.4428 133.255 51.5784C134.391 52.713 134.958 54.1388 134.958 55.856V80.1007C134.958 81.819 134.391 83.2454 133.255 84.3799C132.12 85.5155 130.694 86.0833 128.976 86.0833H104.731ZM106.219 78.6129H127.488V57.3438H106.219V78.6129Z" fill="#FAFBFF" style="fill:#FAFBFF;fill:color(display-p3 0.9804 0.9843 1.0000);fill-opacity:1;"/>
</svg>
