<svg width="49" height="72" viewBox="0 0 49 72" fill="none" xmlns="http://www.w3.org/2000/svg">
<g id="Group 1">
<path id="Vector" d="M35.4347 70.6666H35.9045V19.9996C35.9045 14.3259 33.7833 8.86363 29.9661 4.70397L25.6909 0.0404053V40.5911V59.1764C27.7322 66.8778 33.5743 69.887 35.4347 70.6666Z" fill="white" style="fill:white;fill-opacity:1;"/>
<path id="Vector_2" d="M10.2438 70.6666H10.7136V19.9996C10.7136 14.3259 8.5924 8.86363 4.77523 4.70397L0.5 0.0404053V40.5911V59.1764C2.5413 66.8778 8.38333 69.887 10.2438 70.6666Z" fill="white" style="fill:white;fill-opacity:1;"/>
<path id="Vector_3" d="M48.0303 71.9976H48.5001V21.3306C48.5001 15.6568 46.3789 10.1946 42.5618 6.03497L38.2842 1.37378V41.9245V60.5098C40.3255 68.2111 46.1675 71.2203 48.0279 72L48.0303 71.9976Z" fill="white" style="fill:white;fill-opacity:1;"/>
<path id="Vector_4" d="M19.1065 4.6398C15.1084 8.83273 12.8745 14.4281 12.8745 20.2492V56.8661C12.8745 63.4454 17.434 68.9386 23.5297 70.3219V0L19.1065 4.6398Z" fill="white" style="fill:white;fill-opacity:1;"/>
</g>
</svg>
