<svg width="34" height="32" viewBox="0 0 34 32" fill="none" xmlns="http://www.w3.org/2000/svg">
<path id="draw" d="M1.78947 32V26.3111L27.3342 0.933333C27.6623 0.607407 27.9978 0.37037 28.3408 0.222222C28.6838 0.0740741 29.0491 0 29.4368 0C29.7947 0 30.1452 0.0740741 30.4882 0.222222C30.8311 0.37037 31.1667 0.607407 31.4947 0.933333L33.0605 2.48889C33.3886 2.78519 33.6272 3.1037 33.7763 3.44444C33.9254 3.78519 34 4.14815 34 4.53333C34 4.88889 33.9254 5.24444 33.7763 5.6C33.6272 5.95556 33.3886 6.2963 33.0605 6.62222L7.51579 32H1.78947ZM4.47368 29.3333H6.44211L26.3947 9.51111L24.4263 7.55556L4.47368 27.3778V29.3333ZM19.6842 32C22.0105 32 24.0833 31.4593 25.9026 30.3778C27.7219 29.2963 28.6316 27.763 28.6316 25.7778C28.6316 24.5926 28.1917 23.5037 27.3118 22.5111C26.432 21.5185 25.0526 20.7407 23.1737 20.1778L21.0711 22.2667C22.5623 22.6222 23.7478 23.1259 24.6276 23.7778C25.5075 24.4296 25.9474 25.0963 25.9474 25.7778C25.9474 26.7259 25.3434 27.5556 24.1355 28.2667C22.9276 28.9778 21.4439 29.3333 19.6842 29.3333C19.3263 29.3333 19.0132 29.4593 18.7447 29.7111C18.4763 29.963 18.3421 30.2815 18.3421 30.6667C18.3421 31.0222 18.4763 31.3333 18.7447 31.6C19.0132 31.8667 19.3263 32 19.6842 32ZM5.36842 18.9333L7.51579 16.8C5.90526 16.4148 4.69737 16.0074 3.89211 15.5778C3.08684 15.1481 2.68421 14.6963 2.68421 14.2222C2.68421 13.7481 3.00482 13.2963 3.64605 12.8667C4.28728 12.437 5.60702 11.8519 7.60526 11.1111C10.0807 10.1926 11.7434 9.31111 12.5934 8.46667C13.4434 7.62222 13.8684 6.59259 13.8684 5.37778C13.8684 3.71852 13.257 2.40741 12.0342 1.44444C10.8114 0.481481 9.18596 0 7.15789 0C5.90526 0 4.77193 0.214815 3.75789 0.644444C2.74386 1.07407 1.98333 1.61481 1.47632 2.26667C1.23772 2.53333 1.12588 2.84444 1.14079 3.2C1.1557 3.55556 1.32719 3.85185 1.65526 4.08889C1.95351 4.32593 2.28904 4.42222 2.66184 4.37778C3.03465 4.33333 3.34035 4.19259 3.57895 3.95556C4.02632 3.51111 4.53333 3.18519 5.1 2.97778C5.66667 2.77037 6.35263 2.66667 7.15789 2.66667C8.52982 2.66667 9.54386 2.93333 10.2 3.46667C10.8561 4 11.1842 4.63704 11.1842 5.37778C11.1842 5.97037 10.9009 6.48889 10.3342 6.93333C9.76754 7.37778 8.5 7.95556 6.53158 8.66667C3.72807 9.67407 1.9386 10.5926 1.16316 11.4222C0.387719 12.2519 0 13.1852 0 14.2222C0 15.1704 0.417544 16.0889 1.25263 16.9778C2.08772 17.8667 3.45965 18.5185 5.36842 18.9333Z" fill="#FAFBFF" style="fill:#FAFBFF;fill:color(display-p3 0.9804 0.9843 1.0000);fill-opacity:1;"/>
</svg>
