<svg width="40" height="32" viewBox="0 0 40 32" fill="none" xmlns="http://www.w3.org/2000/svg">
<path id="engineering" d="M0.5 32V27.9111C0.5 26.9037 0.737714 26.0667 1.21314 25.4C1.68857 24.7333 2.35714 24.1926 3.21886 23.7778C4.82343 23.0074 6.53943 22.3704 8.36686 21.8667C10.1943 21.363 12.2669 21.1111 14.5846 21.1111C16.9023 21.1111 18.9749 21.363 20.8023 21.8667C22.6297 22.3704 24.3457 23.0074 25.9503 23.7778C26.812 24.1926 27.4806 24.7333 27.956 25.4C28.4314 26.0667 28.6691 26.9037 28.6691 27.9111V32H0.5ZM3.17429 29.3333H25.9949V27.9111C25.9949 27.4667 25.8686 27.1037 25.616 26.8222C25.3634 26.5407 25.0589 26.3259 24.7023 26.1778C23.4246 25.6148 21.9983 25.0741 20.4234 24.5556C18.8486 24.037 16.9023 23.7778 14.5846 23.7778C12.2669 23.7778 10.3206 24.037 8.74571 24.5556C7.17086 25.0741 5.74457 25.6148 4.46686 26.1778C4.11029 26.3259 3.80571 26.5407 3.55314 26.8222C3.30057 27.1037 3.17429 27.4667 3.17429 27.9111V29.3333ZM14.5846 18.4444C12.6234 18.4444 11.0189 17.8074 9.77086 16.5333C8.52286 15.2593 7.89886 13.6741 7.89886 11.7778H7.45314C7.21543 11.7778 7.00743 11.6889 6.82914 11.5111C6.65086 11.3333 6.56171 11.1259 6.56171 10.8889C6.56171 10.6519 6.65086 10.4444 6.82914 10.2667C7.00743 10.0889 7.21543 10 7.45314 10H7.89886C7.89886 8.81481 8.196 7.74815 8.79029 6.8C9.38457 5.85185 10.1571 5.08148 11.108 4.48889V6.22222C11.108 6.4 11.1749 6.55556 11.3086 6.68889C11.4423 6.82222 11.5983 6.88889 11.7766 6.88889C11.9846 6.88889 12.148 6.82222 12.2669 6.68889C12.3857 6.55556 12.4451 6.4 12.4451 6.22222V3.91111C12.6829 3.85185 13.0097 3.8 13.4257 3.75556C13.8417 3.71111 14.2429 3.68889 14.6291 3.68889C15.0154 3.68889 15.4166 3.71111 15.8326 3.75556C16.2486 3.8 16.5754 3.85185 16.8131 3.91111V6.22222C16.8131 6.4 16.8726 6.55556 16.9914 6.68889C17.1103 6.82222 17.2737 6.88889 17.4817 6.88889C17.66 6.88889 17.816 6.82222 17.9497 6.68889C18.0834 6.55556 18.1503 6.4 18.1503 6.22222V4.48889C19.1011 5.08148 19.8589 5.85185 20.4234 6.8C20.988 7.74815 21.2703 8.81481 21.2703 10H21.716C21.9537 10 22.1617 10.0889 22.34 10.2667C22.5183 10.4444 22.6074 10.6519 22.6074 10.8889C22.6074 11.1259 22.5183 11.3333 22.34 11.5111C22.1617 11.6889 21.9537 11.7778 21.716 11.7778H21.2703C21.2703 13.6741 20.6463 15.2593 19.3983 16.5333C18.1503 17.8074 16.5457 18.4444 14.5846 18.4444ZM14.5846 15.7778C15.8326 15.7778 16.8131 15.4074 17.5263 14.6667C18.2394 13.9259 18.596 12.963 18.596 11.7778H10.5731C10.5731 12.963 10.9297 13.9259 11.6429 14.6667C12.356 15.4074 13.3366 15.7778 14.5846 15.7778ZM28.0451 21.2889L27.956 20C27.748 19.8815 27.5326 19.7481 27.3097 19.6C27.0869 19.4519 26.8863 19.3037 26.708 19.1556L25.5491 19.7778L24.5686 18.3556L25.7274 17.5111C25.668 17.3926 25.6383 17.2815 25.6383 17.1778V16.5111C25.6383 16.4074 25.668 16.2963 25.7274 16.1778L24.5686 15.3333L25.5491 13.9111L26.708 14.5333L27.332 14.0889C27.54 13.9407 27.748 13.8074 27.956 13.6889L28.0451 12.4H29.828L29.9171 13.6889C30.1251 13.8074 30.3331 13.9407 30.5411 14.0889L31.1651 14.5333L32.324 13.9111L33.3046 15.3333L32.1457 16.1778C32.2051 16.2963 32.2349 16.4074 32.2349 16.5111V17.1778C32.2349 17.2815 32.2051 17.3926 32.1457 17.5111L33.3046 18.3556L32.324 19.7778L31.1651 19.1556C30.9869 19.3037 30.7863 19.4519 30.5634 19.6C30.3406 19.7481 30.1251 19.8815 29.9171 20L29.828 21.2889H28.0451ZM28.9366 18.5333C29.412 18.5333 29.8131 18.3704 30.14 18.0444C30.4669 17.7185 30.6303 17.3185 30.6303 16.8444C30.6303 16.3704 30.4669 15.9704 30.14 15.6444C29.8131 15.3185 29.412 15.1556 28.9366 15.1556C28.4611 15.1556 28.06 15.3185 27.7331 15.6444C27.4063 15.9704 27.2429 16.3704 27.2429 16.8444C27.2429 17.3185 27.4063 17.7185 27.7331 18.0444C28.06 18.3704 28.4611 18.5333 28.9366 18.5333ZM32.8589 11.6444L32.4577 10.0889C32.1606 9.97037 31.856 9.80741 31.544 9.6C31.232 9.39259 30.972 9.17037 30.764 8.93333L28.8029 9.64444L27.9114 8.08889L29.4714 6.84444C29.412 6.6963 29.36 6.53333 29.3154 6.35556C29.2709 6.17778 29.2486 6 29.2486 5.82222C29.2486 5.64444 29.2709 5.46667 29.3154 5.28889C29.36 5.11111 29.412 4.94815 29.4714 4.8L27.9114 3.55556L28.8029 2L30.764 2.71111C30.972 2.47407 31.232 2.24444 31.544 2.02222C31.856 1.8 32.1606 1.64444 32.4577 1.55556L32.8589 0H34.5526L34.9537 1.55556C35.2509 1.64444 35.5554 1.8 35.8674 2.02222C36.1794 2.24444 36.4394 2.47407 36.6474 2.71111L38.6086 2L39.5 3.55556L37.94 4.8C37.9994 4.94815 38.0514 5.11111 38.096 5.28889C38.1406 5.46667 38.1629 5.64444 38.1629 5.82222C38.1629 6 38.1406 6.17778 38.096 6.35556C38.0514 6.53333 37.9994 6.6963 37.94 6.84444L39.5 8.08889L38.6086 9.64444L36.6474 8.93333C36.4394 9.17037 36.1794 9.39259 35.8674 9.6C35.5554 9.80741 35.2509 9.97037 34.9537 10.0889L34.5526 11.6444H32.8589ZM33.7057 8.4C34.4486 8.4 35.0651 8.15556 35.5554 7.66667C36.0457 7.17778 36.2909 6.56296 36.2909 5.82222C36.2909 5.08148 36.0457 4.46667 35.5554 3.97778C35.0651 3.48889 34.4486 3.24444 33.7057 3.24444C32.9629 3.24444 32.3463 3.48889 31.856 3.97778C31.3657 4.46667 31.1206 5.08148 31.1206 5.82222C31.1206 6.56296 31.3657 7.17778 31.856 7.66667C32.3463 8.15556 32.9629 8.4 33.7057 8.4Z" fill="#FAFBFF" style="fill:#FAFBFF;fill:color(display-p3 0.9804 0.9843 1.0000);fill-opacity:1;"/>
</svg>
