<svg width="30" height="32" viewBox="0 0 30 32" fill="none" xmlns="http://www.w3.org/2000/svg">
<path id="psychology" d="M4.71679 32V25.12C3.22314 23.7333 2.0636 22.1133 1.23816 20.26C0.412719 18.4067 0 16.4533 0 14.4C0 10.4 1.37573 7 4.12719 4.2C6.87865 1.4 10.2197 0 14.1504 0C17.4259 0 20.3281 0.98 22.8568 2.94C25.3855 4.9 27.0298 7.45333 27.7898 10.6L29.9516 19.32C30.0564 19.6933 29.9909 20.0333 29.7551 20.34C29.5193 20.6467 29.2048 20.8 28.8117 20.8H25.1562V26.4C25.1562 27.06 24.9254 27.6249 24.4636 28.0948C24.0017 28.5649 23.4464 28.8 22.7978 28.8H18.8672V32H16.5088V26.4H22.7978V18.4H27.2788L25.51 11.2C24.8811 8.61333 23.5053 6.5 21.3828 4.86C19.2602 3.22 16.8494 2.4 14.1504 2.4C10.8748 2.4 8.09061 3.55333 5.79772 5.86C3.50484 8.16667 2.3584 10.9805 2.3584 14.3016C2.3584 16.0195 2.70325 17.6513 3.39295 19.1972C4.08291 20.7433 5.06138 22.1176 6.32836 23.32L7.07519 24.04V32H4.71679ZM12.9319 20.24H15.2903L15.4082 18.48C15.7226 18.4267 16.017 18.3139 16.2914 18.1416C16.5658 17.9693 16.8085 17.7755 17.0198 17.56L18.6706 18.12L19.7712 16.2L18.592 15.24C18.723 14.8667 18.7886 14.48 18.7886 14.08C18.7886 13.68 18.723 13.2933 18.592 12.92L19.7712 11.96L18.6706 10.04L17.0198 10.6C16.8015 10.3949 16.5503 10.2103 16.2662 10.046C15.9825 9.882 15.6964 9.76 15.4082 9.68L15.2903 7.92H12.9319L12.8139 9.68C12.5257 9.76 12.2397 9.882 11.9559 10.046C11.6718 10.2103 11.4207 10.3949 11.2024 10.6L9.5515 10.04L8.45092 11.96L9.63012 12.92C9.49909 13.2933 9.43358 13.68 9.43358 14.08C9.43358 14.48 9.49909 14.8667 9.63012 15.24L8.45092 16.2L9.5515 18.12L11.2024 17.56C11.4136 17.7755 11.6564 17.9693 11.9307 18.1416C12.2051 18.3139 12.4995 18.4267 12.8139 18.48L12.9319 20.24ZM14.1158 16.88C13.3527 16.88 12.7026 16.6083 12.1654 16.0648C11.6282 15.5213 11.3596 14.8613 11.3596 14.0848C11.3596 13.3083 11.6266 12.6467 12.1607 12.1C12.6947 11.5533 13.3433 11.28 14.1064 11.28C14.8694 11.28 15.5196 11.5517 16.0567 12.0952C16.5939 12.6387 16.8625 13.2987 16.8625 14.0752C16.8625 14.8517 16.5955 15.5133 16.0615 16.06C15.5274 16.6067 14.8789 16.88 14.1158 16.88Z" fill="#FAFBFF" style="fill:#FAFBFF;fill:color(display-p3 0.9804 0.9843 1.0000);fill-opacity:1;"/>
</svg>
