<svg width="32" height="26" viewBox="0 0 32 26" fill="none" xmlns="http://www.w3.org/2000/svg">
<path id="tv_options_input_settings" d="M2.4 26C1.74 26 1.17507 25.7613 0.7052 25.2838C0.235067 24.8066 0 24.2328 0 23.5625V2.4375C0 1.76719 0.235067 1.19329 0.7052 0.715812C1.17507 0.238604 1.74 0 2.4 0H29.6C30.26 0 30.8251 0.238604 31.2952 0.715812C31.7651 1.19329 32 1.76719 32 2.4375V23.5625C32 24.2328 31.7651 24.8066 31.2952 25.2838C30.8251 25.7613 30.26 26 29.6 26H2.4ZM2.4 23.5625H29.6V2.4375H2.4V23.5625ZM14.8 20.6375H17.2L17.44 18.85C17.9733 18.6875 18.4867 18.4573 18.98 18.1594C19.4733 17.8615 19.92 17.5229 20.32 17.1438L21.92 17.9563L23.2 16.0469L21.6 14.7063C21.7333 14.1375 21.8 13.5688 21.8 13C21.8 12.4312 21.7333 11.8625 21.6 11.2938L23.2 9.95312L21.92 8.04375L20.32 8.85625C19.92 8.47708 19.4733 8.13854 18.98 7.84063C18.4867 7.54271 17.9733 7.3125 17.44 7.15L17.2 5.3625H14.8L14.56 7.15C14.0267 7.3125 13.52 7.54271 13.04 7.84063C12.56 8.13854 12.1067 8.47708 11.68 8.85625L10.08 8.04375L8.8 9.95312L10.4 11.2938C10.2667 11.8625 10.2 12.4312 10.2 13C10.2 13.5688 10.2667 14.1375 10.4 14.7063L8.8 16.0469L10.08 17.9563L11.68 17.1438C12.1067 17.5229 12.56 17.8615 13.04 18.1594C13.52 18.4573 14.0267 18.6875 14.56 18.85L14.8 20.6375ZM16 16.575C15.0133 16.575 14.18 16.2297 13.5 15.5391C12.82 14.8484 12.48 14.0021 12.48 13C12.48 11.9979 12.82 11.1516 13.5 10.4609C14.18 9.77031 15.0133 9.425 16 9.425C16.9867 9.425 17.82 9.77031 18.5 10.4609C19.18 11.1516 19.52 11.9979 19.52 13C19.52 14.0021 19.18 14.8484 18.5 15.5391C17.82 16.2297 16.9867 16.575 16 16.575Z" fill="#FAFBFF" style="fill:#FAFBFF;fill:color(display-p3 0.9804 0.9843 1.0000);fill-opacity:1;"/>
</svg>
